<mxfile host="app.diagrams.net" agent="Mozilla/5.0 (Windows NT 10.0; Win64; x64) AppleWebKit/537.36 (KHTML, like Gecko) Chrome/137.0.0.0 Safari/537.36" version="27.1.4" pages="4">
  <diagram name="АРХ.AUTHZ.1" id="-GRX35XUHPTSXWCFf7xU">
    <mxGraphModel dx="2777" dy="1511" grid="1" gridSize="10" guides="1" tooltips="1" connect="1" arrows="1" fold="1" page="1" pageScale="1" pageWidth="1500" pageHeight="800" math="0" shadow="0">
      <root>
        <mxCell id="Ks1uL71AeTxSxRmoqzZZ-0" />
        <mxCell id="Ks1uL71AeTxSxRmoqzZZ-1" parent="Ks1uL71AeTxSxRmoqzZZ-0" />
        <mxCell id="Mfl2HxvF7Jl8QkAAWjPy-5" value="модуль интеграции ИС&lt;br&gt;&amp;nbsp;с ATOM ID&lt;br&gt;&lt;br&gt;&lt;br&gt;&lt;br&gt;&lt;div&gt;&lt;br&gt;&lt;/div&gt;" style="rounded=0;whiteSpace=wrap;html=1;" parent="Ks1uL71AeTxSxRmoqzZZ-1" vertex="1">
          <mxGeometry x="-1110" y="-310" width="540" height="150" as="geometry" />
        </mxCell>
        <mxCell id="Ks1uL71AeTxSxRmoqzZZ-3" value="" style="endArrow=none;dashed=1;html=1;rounded=0;fillColor=#f8cecc;strokeColor=#b85450;dashPattern=12 12;" parent="Ks1uL71AeTxSxRmoqzZZ-1" edge="1">
          <mxGeometry width="50" height="50" relative="1" as="geometry">
            <mxPoint x="-1470" y="-450" as="sourcePoint" />
            <mxPoint x="-10" y="-450" as="targetPoint" />
          </mxGeometry>
        </mxCell>
        <mxCell id="Ks1uL71AeTxSxRmoqzZZ-4" style="edgeStyle=orthogonalEdgeStyle;rounded=0;orthogonalLoop=1;jettySize=auto;html=1;entryX=0;entryY=0.25;entryDx=0;entryDy=0;exitX=0.25;exitY=0;exitDx=0;exitDy=0;" parent="Ks1uL71AeTxSxRmoqzZZ-1" source="Mfl2HxvF7Jl8QkAAWjPy-0" target="Ks1uL71AeTxSxRmoqzZZ-10" edge="1">
          <mxGeometry relative="1" as="geometry" />
        </mxCell>
        <mxCell id="Ks1uL71AeTxSxRmoqzZZ-5" value="&lt;div style=&quot;color: rgb(59, 59, 59); font-family: Consolas, &amp;quot;Courier New&amp;quot;, monospace; font-size: 14px; line-height: 19px; white-space-collapse: preserve;&quot;&gt;&lt;br&gt;&lt;/div&gt;" style="edgeLabel;html=1;align=center;verticalAlign=middle;resizable=0;points=[];" parent="Ks1uL71AeTxSxRmoqzZZ-4" vertex="1" connectable="0">
          <mxGeometry x="-0.1494" relative="1" as="geometry">
            <mxPoint x="145" y="-38" as="offset" />
          </mxGeometry>
        </mxCell>
        <mxCell id="L8oCNaQhf7IKe5ZC7GYe-3" value="&quot;input&quot;: { &amp;nbsp; &amp;nbsp; &amp;nbsp; &lt;br&gt;&amp;nbsp; &amp;nbsp; &amp;nbsp; &quot;object&quot;: &quot;печенька&quot;,&amp;nbsp; &amp;nbsp; &amp;nbsp;&amp;nbsp;&lt;br&gt;&amp;nbsp; &amp;nbsp; &amp;nbsp; &quot;user_token&quot;: &quot;jwt&quot;&lt;br&gt;&amp;nbsp; &amp;nbsp; }" style="edgeLabel;html=1;align=left;verticalAlign=middle;resizable=0;points=[];spacing=0;" vertex="1" connectable="0" parent="Ks1uL71AeTxSxRmoqzZZ-4">
          <mxGeometry x="0.3219" relative="1" as="geometry">
            <mxPoint x="-39" y="3" as="offset" />
          </mxGeometry>
        </mxCell>
        <mxCell id="Ks1uL71AeTxSxRmoqzZZ-7" value="Модуль выполнения решения авторизации (&lt;span style=&quot;background-color: initial;&quot;&gt;PEP)&lt;/span&gt;" style="rounded=0;whiteSpace=wrap;html=1;" parent="Ks1uL71AeTxSxRmoqzZZ-1" vertex="1">
          <mxGeometry x="-720" y="-275" width="120" height="80" as="geometry" />
        </mxCell>
        <mxCell id="Ks1uL71AeTxSxRmoqzZZ-8" style="edgeStyle=orthogonalEdgeStyle;rounded=0;orthogonalLoop=1;jettySize=auto;html=1;exitX=0.75;exitY=1;exitDx=0;exitDy=0;entryX=0.75;entryY=0;entryDx=0;entryDy=0;" parent="Ks1uL71AeTxSxRmoqzZZ-1" source="Ks1uL71AeTxSxRmoqzZZ-10" target="Mfl2HxvF7Jl8QkAAWjPy-0" edge="1">
          <mxGeometry relative="1" as="geometry" />
        </mxCell>
        <mxCell id="Ks1uL71AeTxSxRmoqzZZ-9" value="&quot;decision&quot;:&quot;allow&quot;" style="edgeLabel;html=1;align=center;verticalAlign=middle;resizable=0;points=[];" parent="Ks1uL71AeTxSxRmoqzZZ-8" vertex="1" connectable="0">
          <mxGeometry x="0.1563" relative="1" as="geometry">
            <mxPoint x="45" y="-5" as="offset" />
          </mxGeometry>
        </mxCell>
        <mxCell id="Ks1uL71AeTxSxRmoqzZZ-10" value="ATOM ID APA" style="rounded=0;whiteSpace=wrap;html=1;" parent="Ks1uL71AeTxSxRmoqzZZ-1" vertex="1">
          <mxGeometry x="-767.5" y="-573" width="120" height="80" as="geometry" />
        </mxCell>
        <mxCell id="Ks1uL71AeTxSxRmoqzZZ-11" style="edgeStyle=orthogonalEdgeStyle;rounded=0;orthogonalLoop=1;jettySize=auto;html=1;entryX=0;entryY=0.5;entryDx=0;entryDy=0;" parent="Ks1uL71AeTxSxRmoqzZZ-1" source="Ks1uL71AeTxSxRmoqzZZ-13" target="Mfl2HxvF7Jl8QkAAWjPy-0" edge="1">
          <mxGeometry relative="1" as="geometry" />
        </mxCell>
        <mxCell id="Ks1uL71AeTxSxRmoqzZZ-12" value="Хочу печеньку" style="edgeLabel;html=1;align=center;verticalAlign=middle;resizable=0;points=[];" parent="Ks1uL71AeTxSxRmoqzZZ-11" vertex="1" connectable="0">
          <mxGeometry x="-0.1557" y="-1" relative="1" as="geometry">
            <mxPoint x="8" y="-1" as="offset" />
          </mxGeometry>
        </mxCell>
        <mxCell id="Ks1uL71AeTxSxRmoqzZZ-13" value="Пользователь" style="shape=umlActor;verticalLabelPosition=bottom;verticalAlign=top;html=1;outlineConnect=0;" parent="Ks1uL71AeTxSxRmoqzZZ-1" vertex="1">
          <mxGeometry x="-1280" y="-260" width="30" height="60" as="geometry" />
        </mxCell>
        <mxCell id="Ks1uL71AeTxSxRmoqzZZ-14" style="edgeStyle=orthogonalEdgeStyle;rounded=0;orthogonalLoop=1;jettySize=auto;html=1;exitX=1;exitY=0.5;exitDx=0;exitDy=0;entryX=0;entryY=0.5;entryDx=0;entryDy=0;" parent="Ks1uL71AeTxSxRmoqzZZ-1" source="Ks1uL71AeTxSxRmoqzZZ-7" target="Ks1uL71AeTxSxRmoqzZZ-15" edge="1">
          <mxGeometry relative="1" as="geometry">
            <mxPoint x="-490" y="-235.5" as="sourcePoint" />
            <mxPoint x="-390" y="-235.5" as="targetPoint" />
          </mxGeometry>
        </mxCell>
        <mxCell id="Mfl2HxvF7Jl8QkAAWjPy-6" value="HTTP 200 OK" style="edgeLabel;html=1;align=center;verticalAlign=middle;resizable=0;points=[];" parent="Ks1uL71AeTxSxRmoqzZZ-14" vertex="1" connectable="0">
          <mxGeometry x="-0.1806" y="-4" relative="1" as="geometry">
            <mxPoint x="39" y="-4" as="offset" />
          </mxGeometry>
        </mxCell>
        <mxCell id="Ks1uL71AeTxSxRmoqzZZ-15" value="Ресурс " style="shape=image;verticalLabelPosition=bottom;labelBackgroundColor=default;verticalAlign=top;aspect=fixed;imageAspect=0;image=data:image/jpeg,/9j/4AAQSkZJRgABAQAAAQABAAD/2wCEAAkGBxMQEhUQEBMWExUXFxISFRcXERcVFxYXFRcWFhcVFxUZHiggGRslGxcVITEiJykrLi4uFx8zODUtOSgtLisBCgoKDg0OGxAQGy8lICYvNSs1LS4tLS8vLS0tLS0tLS0tLS0tLS0tLS0tLS0tLS0tLS0rLTUtLS0tLy0tLS0tLf/AABEIAOEA4QMBIgACEQEDEQH/xAAcAAEAAgMBAQEAAAAAAAAAAAAABgcDBAUCAQj/xABGEAABAwIDBQUEBgYHCQAAAAABAAIDBBEFEiEGMUFRYQcTcYGRIjKhsQgUQlJiwSNDcpKisiQzY4Kj4fAVFkRzk5TC0fH/xAAZAQEAAwEBAAAAAAAAAAAAAAAAAgMEBQH/xAAnEQEAAgICAgEEAgMBAAAAAAAAAQIDEQQxEiFBExQiQlGxMjNhBf/aAAwDAQACEQMRAD8AvFERAREQEREBERAREQEREBERAREQEREBERAREQEREBERAREQEREBERAREQEREBFhpJXPY1z2GNxGrC4OLel26HyWZAREQEREBERAREQEREBERAREQEREBERAREQEREBERAREQEREBERAREQEREBERAREQEREBERAREQEREBERAREQEREBERAREQEREBERAREQEXA2q2tpsOZeZ13kXZE2xkd5fZH4jYKmNqNuKzECW5jDCf1UbiAR/aP0L/DQdFXfLWq3HhtfpeVbtHSQXEtTCwjgZm5v3b3+Ci+Jdq9DHpEJag7vYjyN83SZdPAFUhHS20Fh4BbLKNZ55M/DVXiV+ZWhH2xsv7VG4DmJ2E+haPmupB2s0ThdzJ2HkY2G/gWvPxsqfbSgb7L6IhwsofcXT+0ovOj7RMOk/4gMPJ8b2fEtt8V3sOxSCoGaCaOUcSyRr7eNjovzcWBSXZLCAWOncCCSBG4Ese0NvdzXtIIuTwP2V7PM8Y3aEJ4cT1K+EUAoNpqimH6f+kxC5LrtZM0DXfo2S3XKeZKluCY5T1rO8ppBIBbMNzmk8HNOrT4rRiz0yx+MsuTDfH26SIiuVCIiAiIgIiICIiAiIgIiICIiAiIgKudp9t5JXupsOIAaSySosDdw0LIAdCQd7zcC1hfeOpt5jJymihcWveLyuabObGfsh32XO57wL2sSCIfTUbWNyNGUAZRbSwtYAcli5PI8fxr3/TdxON5/nbr+3OqtnWTAl7nGQ3cZCS5znWsC4uuXDdv5KGQnRWFhVD3DMmdz9Sbu68FFZ9mqhryI2h7LmxzgadQSNVix373Lfev8Q5sb7L0+byXapdlJXH9K9rByb7TvyA+K7tJs7Tx2OTORxeS6/W3u/BStkrCMVlHMGwJ9SQ992Rb78Xfsj8/mpRVYBA+PumsDLe64D2geZO93W66QXsLPbJMynrSLUWyJzXnkBaD7rAbu8SdylTWADKBYAWAGlhuFl9C+qNrTPZpE8Za2mp3U7JC9z3+1dwLmttc3A3XsPHMVHMNxCajmbPA7K9vo4cWvH2mnl8jYrc2ijLauQcyHeRaD87jyWB0OZtlop+MbhGYifUr42S2kjxCASx+y4WbIy9yx3LqDvB4+NwO4vzvsjjrsNqmy692bMmHNhOpA+83ePAjiv0NG8OAINwQCCOIO4rqYcnnX325WfF9O3/HpERXKBERAREQEREBERAREQEREBR7bTaH6jCC2xmkPdwtOozWuXuH3WjU89BxUhVAbcbTGprHzxnMxt6envqMjD+kkHPM+/iGt5KrNea19drsGOL399NqpxRtO0ySudJI8k6n23ni4nh4+AHJcxm1z76wtt+2b+tlwZJHSuzSOzOsBfkBuAA0AXx4AXOjFH7dupOSfj1Cb4HjraklmUscBmte4IvbQ6cx6rsBQnZoiG8xBe+QOjhjbbM/KQXHXRrQQBmOg8xeR4UypzPfUvYAQAyKMXDNTqXkXcbW6Kq9Ne1tL79OsvoKx5rdVrYVUySszSxmN1yLHkOOv+tFTpKWTFZpGROdC3M8WsLX8TbjYcFEhSVs3tkS3/E7Jv5NJFlNwV6BUq318IzDTwKlkhiDZX53XvvJyjT2QT/rVdMFYgV6BVczudvNIvtvRe5UNG72H+F7tPxI9FwaeQEKXYlixikMc9O407gB3zRnaLj2hKwatH4v/qjON4T9WLZInB8T/cN72uLgX4i24rRTcRqUYtG/TUrYri6t/sr2ibVUop3aS07WxkfejAsxw8hY+HUKoy+4WfZbGTQVkdRezL5JeRicQH38NHeLAtGC/jZTycfnX0/RiL4Cvq6bkiIiAiIgIiICIiAiIgIiIOBt5iJpsPqZmGzxE5rDyfJaNluuZwVCYhhobTsc39XYHwOl/UD1Vx9r0lqFrCbZ54G255SZbf4d/JV9h263QfmufzMkxaNOpwMUWpZCopNwbqToANSfBSLDtmHu1nOUaHK03cehO4fFSSOBgOYMaDzDQD6rYCy2zTPTXXBEdtGnpoqVr5nFrBbVx0DI2+6wdBv6ucTxXM/38ob2713j3T7fK653aXVBjKdjwXRulzSNBsXNZa7b/wB4/BRPbDHaaqMQpacQsjBHuta517eyQw2sLc7+0dy0YePGSvlZkz8mcVvGq3aGtjnYJIXh7TuIN/I8j0WyCqp2GxgnELRsbFHMHZo2XyNysJBF+rf4ipHim0T5HFsJyMGgI953W/AcrKnLgmt/GF2LkRenlKXVFbHH/WSNb0LgD6L3T1sb/ckY7weCfRVoYibk68Tc715vlILTYggg33Hmo/RjXaX1FqhegVhjJsL77C9t1+NlCpseiq6uanmqjSU8OnsvEb53tNnfpCNGix9kan5QxYZyTqHmXLGONynqhO1tKYXMbFpE8vkLPsskFruZyDsxu3dfUbyoFHi4hqJnRVNRkb3hp3XzF7gRkEjXG2Qi99L7tFb2EVDK2limkY052hxBFwHbja/UFW5MNsHve4lVizVyzrWphBmAuIa0FzjoABcnwClGFbOZWF84BeQQG7wwEa+LiPRSCnpI4/6tjW332aBfxKyOGiovkmY9NER7TPYvETUUcT3G72gwycPbhJjcbdS2/mu4oN2YyWNbAT7s7JR0EsTPzY4+ZU5XbxW8qRZxMtfG8wIiKxAREQEREBERAREQEREFfdtBtS0xO4VTSf8At6lVnguKOkl7trRlsSSTrYcbeJGnVWb21PZ9QYxxsX1ELGeNnkn90O9VWmA0QicXXuSMu61hv/ILnczXl7706vA8prqOtpQCsjVzaKne173ukLmutladzfiui0rE6UOLths99eiDWuDZGEuYTuNxYtNtwOmvRQOPs8rSbERtHMyafAE/BWvlNwb7uCyrRTkWx11DNl4mPJbylFdndj2UbHve/PK5jml9rBjSDfKN/n0UbiOis8i65L9mqY39gi/J7hbw1UIzTMzNkZwxERFUGlqraWJ8Bp6ldjBMDfOWvkBZHv1Fi7oBy6qUUeCwRG7Ixfm72j5X3LdnmawFzjYC3x0AHMk2Fktl36rBXHr3MswVTbbbHzxzPngY6SJ7i/2RmcwuNyC0a2uTYq1YnkgEgtPEG1x000WRRw5ZxW3D3LhrlrqX56ioJXuyNje527KGOJ9LK9dk6B1NSQwye81vtDfYuJcR5Xst+RzvsgHnc/66LI0/n/krc+ecsRGleDiximZ3tkutLDsObCXlrnOzuzHMb237vVbd1Gdp8cLbwxGx3PcN4/C3rzKyxWZ9Qun0mvZrKHVVeGkEZaM3BuL2mBHiLKwVTnYbW2qKqAn3o4pAP+W4tcf8RquNdvBGscQ43I/2SIiK1SIiICIiAiIgIiICIiCnvpBV1vqcA35pZz0LcrGfzP8ARRTDp9x3bjY6WPEEcCu/2ktNRtDRQXu0fUmkcLGd73+Zb8guRtvTmgrqhjho55qYfxNmJcQPCTvG+ACxcrHNo3Hw6PCyxSdS7MD7rZaVW0mJTv1Mjm8g1xaB6fmtnA6uUTsDXuOZwDgXEgjje/S6x/RmI3tv+5rM6iFhgr2CsAK5mL48Kd7WZM5IzH2rWF7ctToVVETb1C68xEbl3AV9BWrR1bJW543Bw+R5EcD0WwCoodtOYVItkMT9BcuDmm/HQEgj0t1WOmoJC8S1Dw8t1YxvuMO7MNBc23X3XOpXSugKl5I+D6vQK0cTxKOnZnkPQAb3HoovVbRTS+4e6b01Pm4/5L2tJt08m8VTbvBfLcX5X19F6uq1ikd3jXNJc/M0g3JJddWOXJeviVt5NfFq3uIXycQLD9o6D4lV9M85eLnOPiST8ypLtrU5Y2M4Odcn9kaD4/Be+y/BDWVoleLxU9pTpoX/AKtvqC7+51V2CnkpzZIrvb3sJSvw/HW0shu4tdE4gae3A2ew5gFoF+ivVU7iLb7UxAb7sJ8qVx+SuJdPHGomHJyTuYkREVisREQEREBERAREQEREFL7ejutpKGR2jX/U9eF+9kjt/L6qY9quyJxGmzwtvUQZnxc3tPvxX62BHVo5lcPt4wZ76eGuhvnpnkOI3tZIW2f/AHZGs/eJU/2YxlldSw1Ue6RgcR91w0ew9WuDh5KOu4T31MPy/BJwO8aWIsR0I4Fd7ZCIGR8h4ANHi7f8B8VYnaZ2bfWHOraBoExu6WLQCXm9nAScxud0O+rNn6t0UxieC0klrmuBa5rm8CDqDvFliz0mKy38bJW142nrXKNbXxWfHLwILD0sbj5n0Xchnus0jA9pa4XaQQRzBWClvGdupkp5V0gtNVPiOeJ5bzAOh8RuKsGgqO8jZIdMzWu9RdRt+yjbjLK4DiCATboRZSWFoaA0aAAAdANArMtqzrSjFS1e2wl1jDlqVeJtikjicHEyGwsNBw19VTELZ9PGM4Q2pDczi0tvYjXfa9wfBa1HszDHq7NIfxHT0H53XYzLyXKXlOtPPCJnbFT0MUWscbWnmGi/729bBesTnrUqag6NY0vkeckbALue87gB8TwABJIGq89zOktRWNssodM9kEbc8kjsrBbdxLzyAFyTwsrU2fwSKhhEMIsLlzjYAucd7j6AdAAohhcLcEjbUVsc08sjT308MQkjp2ix7sgEODd13BpuW62AaBz9re0iKrh+pYSXzVFQe5B7p8eRrveILwPatfUaDVxOmvU4+GMUbntxuTmnNOq9NLs+/p+OVmIDWOPOGO4HNaGIg9Yo3nzVwKObBbLtwykbACHSE95M4bnPIAsPwgANHQX4lSNaaxqGW87kREUkRERAREQEREBERAREQYqumZKx0UjQ9j2ljmkXDmuFiCORCpCvxKp2VqX00IE9JP8ApoWyEjKfdcA8faHsg6G4yHQkq9Fwds9losTpzTy+yfeikAu6N43OHMcCOIPmvJh7E/yjPZrtrNikj++mp2FrSfqzIZBIBcASd691nAbjlB94Xtx6u2WwUNe4VDD3NS3dIBcPsLBsrftdDvHUaKMdl3ZzU4dVyVNU6OzWPhjDHF2fOWkvNwMos0ab9Ty1tZea3GrJeXjbdVBVtPLRy9xVM7t/DW7JB96J/wBodN44gLYiqBwPkrqxPDYamMxVEbJWHe17Q4X4HXceqgWL9lbSc1DUvh/s5QZ4/BriQ9vmXLDk4XzR08P/AKPrWSEcZJdezMBvIHiQFw9tsBxDDYWvnlhMb5BE0xOfnJLXO1DmCzbNO48lFsGw2esc5tPC+dzQHODQCQCbAm/VUxxbfK63Np+qyDKBqSB5rXfiUI3yx/8AUb/7UQk2XrmXvQ1GnKne74tBv5Lm10ckBDZoZIiRcCSJ8ZIHEB4Fwn2yP3cT0m9TtJTs3Pznkxpd8d3xXPftfGP1b7eLfkuPgGz1XiF/qkOdodkc/M1rWmwPtFx5EHS+9WXs32PRtGfEJDM4j+ric5jGnrILPf8Aw+BVleLtVfmaRqixA1bmxUjHTSu+wBYRj70r9zGjnx4XVq7J7KMox3shEtQ4WfJawaDYmOIfZZceLrAngB1sIweCkj7qmiZEzfZrQLnm473Hqblby14uPXH7jtjz8q+X1PSn+38z2pQ3P3DjI1wbfKZbtyBwG82zZQeRst3sf2EfS/0+rYWzOBbDG73o2O3vcOD3DS28C99SQLSsvqt8fe1Hl60IiKSIiIgIiICIiAiIgIiICIiAiIgIiICIiCq/pB3+qU2mn1jU9e6ksPn6LW+j3Sjuqua2pkiiv0Ywut/iLr9u8GbDQ7T2J4X9dQ6PT99aP0fJQaSpZxFRmPOzoowP5Sofss/RaiqL6QdEO7pKjiHyQ+T25/nH8Vbqrbt6y/7Ojvv+sxZepyS3/hzL2/SNO3O+j4/9BVt5Sxu9WW/8VbSq36P0FqOof96oy+TYoz83FWklei/+QiIpIiIiAiIgIiICIiAiIgIiICIiAiIgIiICIiDXxGtZTxSTynKyNj5HnfZrAXE28Avz1tZ2q1tY4tp3Gkh1Aaw2lcOb5d4PRtrdd6/QmJULKiKSCUXZIx8Txe12vBabHhoVQe0PY/XQOJpctXHrazmxyAfia8gHxafIKF9/CdNfKvqid8js8j3SO+89xe71cSVcn0eGnLWHW2anA5XAkJ87FvwUQwjsnxOcjPE2nbpd0sjSbcwxhJJ6GyvjZPZ2LDaZlLDcgXc5x9573e893ytwAA4LytZ3uUr2jWnZVT/SEefq9K3gZnk+IjcB/MVbCinaRsp/tSkMTCBMw95CToMwFi13RwuOhseCnbpXXtQ2zW3Vdh7O6ppG93cu7t8TXNzHeb2Dv4lY+y3bQx7hHiEQivYd9GSYweb4zdzR1Bd5KnsVw2akeY6mJ8LgbWe0tv8Asu3O8QSFlwPBKiuf3dJE6Z2l8o9lt+L3n2WjxKqibQvmtZh+t43hwDmkEEAgg3BB1BB4helytlMLdSUdPTPdmdFFHG4jcS0a26cB0XVVzOIiICIiAiIgIiICIiAiIgIiICIiAiIgIiICIiAiIgIiIPEkQcLOAcORAI9CvrIw0WaAANwAsB5L0iAiIgIiICIiAiIgIiICIiAiIgIiICIiAiIgIiICIiAiIgIiICIiAiIgIiICIiAiIgIiICIiD//Z;" parent="Ks1uL71AeTxSxRmoqzZZ-1" vertex="1">
          <mxGeometry x="-410" y="-275" width="80" height="80" as="geometry" />
        </mxCell>
        <mxCell id="Ks1uL71AeTxSxRmoqzZZ-16" style="edgeStyle=orthogonalEdgeStyle;rounded=0;orthogonalLoop=1;jettySize=auto;html=1;exitX=0;exitY=0;exitDx=0;exitDy=27.5;exitPerimeter=0;entryX=1;entryY=0.25;entryDx=0;entryDy=0;" parent="Ks1uL71AeTxSxRmoqzZZ-1" source="Ks1uL71AeTxSxRmoqzZZ-17" target="Ks1uL71AeTxSxRmoqzZZ-10" edge="1">
          <mxGeometry relative="1" as="geometry" />
        </mxCell>
        <mxCell id="Ks1uL71AeTxSxRmoqzZZ-17" value="Ролевая модель:&lt;br&gt;Матрица доступа RBAC" style="shape=cylinder3;whiteSpace=wrap;html=1;boundedLbl=1;backgroundOutline=1;size=15;" parent="Ks1uL71AeTxSxRmoqzZZ-1" vertex="1">
          <mxGeometry x="-450" y="-580" width="130" height="100" as="geometry" />
        </mxCell>
        <mxCell id="Ks1uL71AeTxSxRmoqzZZ-20" style="edgeStyle=orthogonalEdgeStyle;rounded=0;orthogonalLoop=1;jettySize=auto;html=1;dashed=1;dashPattern=8 8;" parent="Ks1uL71AeTxSxRmoqzZZ-1" source="Ks1uL71AeTxSxRmoqzZZ-21" target="Ks1uL71AeTxSxRmoqzZZ-13" edge="1">
          <mxGeometry relative="1" as="geometry" />
        </mxCell>
        <mxCell id="Ks1uL71AeTxSxRmoqzZZ-21" value="Роли пользователя (субьекта)" style="swimlane;fontStyle=0;childLayout=stackLayout;horizontal=1;startSize=30;horizontalStack=0;resizeParent=1;resizeParentMax=0;resizeLast=0;collapsible=1;marginBottom=0;whiteSpace=wrap;html=1;" parent="Ks1uL71AeTxSxRmoqzZZ-1" vertex="1">
          <mxGeometry x="-1350" y="-125" width="170" height="90" as="geometry" />
        </mxCell>
        <mxCell id="Ks1uL71AeTxSxRmoqzZZ-22" value="Логин" style="text;strokeColor=none;fillColor=none;align=left;verticalAlign=middle;spacingLeft=4;spacingRight=4;overflow=hidden;points=[[0,0.5],[1,0.5]];portConstraint=eastwest;rotatable=0;whiteSpace=wrap;html=1;" parent="Ks1uL71AeTxSxRmoqzZZ-21" vertex="1">
          <mxGeometry y="30" width="170" height="30" as="geometry" />
        </mxCell>
        <mxCell id="Ks1uL71AeTxSxRmoqzZZ-24" value="Роль в системе" style="text;strokeColor=none;fillColor=none;align=left;verticalAlign=middle;spacingLeft=4;spacingRight=4;overflow=hidden;points=[[0,0.5],[1,0.5]];portConstraint=eastwest;rotatable=0;whiteSpace=wrap;html=1;" parent="Ks1uL71AeTxSxRmoqzZZ-21" vertex="1">
          <mxGeometry y="60" width="170" height="30" as="geometry" />
        </mxCell>
        <mxCell id="Ks1uL71AeTxSxRmoqzZZ-30" value="ATOM ID" style="text;html=1;align=center;verticalAlign=middle;whiteSpace=wrap;rounded=0;" parent="Ks1uL71AeTxSxRmoqzZZ-1" vertex="1">
          <mxGeometry x="-1140" y="-490" width="60" height="30" as="geometry" />
        </mxCell>
        <mxCell id="Mfl2HxvF7Jl8QkAAWjPy-0" value="Запрос решения APA" style="rounded=0;whiteSpace=wrap;html=1;" parent="Ks1uL71AeTxSxRmoqzZZ-1" vertex="1">
          <mxGeometry x="-1090" y="-270" width="140" height="80" as="geometry" />
        </mxCell>
        <mxCell id="Mfl2HxvF7Jl8QkAAWjPy-2" value="&quot;decision&quot;:&quot;allow&quot;" style="edgeStyle=orthogonalEdgeStyle;rounded=0;orthogonalLoop=1;jettySize=auto;html=1;entryX=0;entryY=0.5;entryDx=0;entryDy=0;exitX=1;exitY=0.5;exitDx=0;exitDy=0;" parent="Ks1uL71AeTxSxRmoqzZZ-1" source="Mfl2HxvF7Jl8QkAAWjPy-0" target="Ks1uL71AeTxSxRmoqzZZ-7" edge="1">
          <mxGeometry relative="1" as="geometry">
            <mxPoint x="-1530" y="-233" as="sourcePoint" />
            <mxPoint x="-1020" y="-233" as="targetPoint" />
          </mxGeometry>
        </mxCell>
        <mxCell id="PDmyS-JZSGef6qQ8yRt2-0" value="ИС" style="text;html=1;align=center;verticalAlign=middle;whiteSpace=wrap;rounded=0;" parent="Ks1uL71AeTxSxRmoqzZZ-1" vertex="1">
          <mxGeometry x="-1140" y="-430" width="60" height="30" as="geometry" />
        </mxCell>
        <mxCell id="0VNqBrsZa0Y2u7rmADq5-0" value="RBAC" style="rounded=0;whiteSpace=wrap;html=1;fillColor=#e1d5e7;strokeColor=#9673a6;" parent="Ks1uL71AeTxSxRmoqzZZ-1" vertex="1">
          <mxGeometry x="-1435" y="-750" width="120" height="60" as="geometry" />
        </mxCell>
        <mxCell id="rw0EYTvq2NWNT337Ff_2-3" style="edgeStyle=orthogonalEdgeStyle;rounded=0;orthogonalLoop=1;jettySize=auto;html=1;entryX=1;entryY=0.5;entryDx=0;entryDy=0;dashed=1;dashPattern=8 8;" parent="Ks1uL71AeTxSxRmoqzZZ-1" source="rw0EYTvq2NWNT337Ff_2-0" target="Ks1uL71AeTxSxRmoqzZZ-15" edge="1">
          <mxGeometry relative="1" as="geometry" />
        </mxCell>
        <mxCell id="rw0EYTvq2NWNT337Ff_2-0" value="Атрибуты ресурса (объекта)" style="swimlane;fontStyle=0;childLayout=stackLayout;horizontal=1;startSize=30;horizontalStack=0;resizeParent=1;resizeParentMax=0;resizeLast=0;collapsible=1;marginBottom=0;whiteSpace=wrap;html=1;" parent="Ks1uL71AeTxSxRmoqzZZ-1" vertex="1">
          <mxGeometry x="-210" y="-280" width="170" height="90" as="geometry" />
        </mxCell>
        <mxCell id="rw0EYTvq2NWNT337Ff_2-1" value="Тип" style="text;strokeColor=none;fillColor=none;align=left;verticalAlign=middle;spacingLeft=4;spacingRight=4;overflow=hidden;points=[[0,0.5],[1,0.5]];portConstraint=eastwest;rotatable=0;whiteSpace=wrap;html=1;" parent="rw0EYTvq2NWNT337Ff_2-0" vertex="1">
          <mxGeometry y="30" width="170" height="30" as="geometry" />
        </mxCell>
        <mxCell id="rw0EYTvq2NWNT337Ff_2-2" value="Создатель" style="text;strokeColor=none;fillColor=none;align=left;verticalAlign=middle;spacingLeft=4;spacingRight=4;overflow=hidden;points=[[0,0.5],[1,0.5]];portConstraint=eastwest;rotatable=0;whiteSpace=wrap;html=1;" parent="rw0EYTvq2NWNT337Ff_2-0" vertex="1">
          <mxGeometry y="60" width="170" height="30" as="geometry" />
        </mxCell>
        <mxCell id="rw0EYTvq2NWNT337Ff_2-4" style="edgeStyle=orthogonalEdgeStyle;rounded=0;orthogonalLoop=1;jettySize=auto;html=1;exitX=0.5;exitY=0;exitDx=0;exitDy=0;entryX=1;entryY=0.5;entryDx=0;entryDy=0;entryPerimeter=0;" parent="Ks1uL71AeTxSxRmoqzZZ-1" source="rw0EYTvq2NWNT337Ff_2-0" target="Ks1uL71AeTxSxRmoqzZZ-17" edge="1">
          <mxGeometry relative="1" as="geometry" />
        </mxCell>
        <mxCell id="lBYCIhcQWjt3spZ26cBQ-1" style="edgeStyle=orthogonalEdgeStyle;rounded=0;orthogonalLoop=1;jettySize=auto;html=1;entryX=0.5;entryY=0;entryDx=0;entryDy=0;" parent="Ks1uL71AeTxSxRmoqzZZ-1" source="lBYCIhcQWjt3spZ26cBQ-0" target="Ks1uL71AeTxSxRmoqzZZ-10" edge="1">
          <mxGeometry relative="1" as="geometry" />
        </mxCell>
        <mxCell id="lBYCIhcQWjt3spZ26cBQ-0" value="Политика" style="shape=cylinder3;whiteSpace=wrap;html=1;boundedLbl=1;backgroundOutline=1;size=15;" parent="Ks1uL71AeTxSxRmoqzZZ-1" vertex="1">
          <mxGeometry x="-450" y="-710" width="130" height="110" as="geometry" />
        </mxCell>
        <mxCell id="6zxU31Yq-Zy14vg2oefx-0" value="&lt;p style=&quot;margin-bottom:0cm;margin-bottom:.0001pt;line-height:&amp;lt;br/&amp;gt;normal&quot; class=&quot;MsoNormal&quot;&gt;&lt;span style=&quot;font-size:9.0pt;mso-bidi-font-size:11.0pt&quot;&gt;&lt;b&gt;Бизнес правило:&lt;/b&gt; Пользователь с&amp;nbsp;[роль] может [получить доступ] [прочитать] [изменить] [удалить] свой блог если у&lt;br&gt;пользователя имеется [роль]&lt;/span&gt;&lt;/p&gt;" style="rounded=0;whiteSpace=wrap;html=1;fillColor=#d5e8d4;strokeColor=#82b366;" parent="Ks1uL71AeTxSxRmoqzZZ-1" vertex="1">
          <mxGeometry x="-590" y="-110" width="480" height="60" as="geometry" />
        </mxCell>
        <mxCell id="6zxU31Yq-Zy14vg2oefx-1" style="edgeStyle=orthogonalEdgeStyle;rounded=0;orthogonalLoop=1;jettySize=auto;html=1;exitX=1;exitY=0.5;exitDx=0;exitDy=0;entryX=1;entryY=0.5;entryDx=0;entryDy=0;entryPerimeter=0;dashed=1;dashPattern=8 8;" parent="Ks1uL71AeTxSxRmoqzZZ-1" source="6zxU31Yq-Zy14vg2oefx-0" target="lBYCIhcQWjt3spZ26cBQ-0" edge="1">
          <mxGeometry relative="1" as="geometry">
            <Array as="points">
              <mxPoint x="-20" y="-80" />
              <mxPoint x="-20" y="-655" />
            </Array>
          </mxGeometry>
        </mxCell>
      </root>
    </mxGraphModel>
  </diagram>
  <diagram name="АРХ.AUTHZ.2" id="JTO87HPEgEV6rcdzaVZB">
    <mxGraphModel dx="2777" dy="711" grid="1" gridSize="10" guides="1" tooltips="1" connect="1" arrows="1" fold="1" page="1" pageScale="1" pageWidth="1500" pageHeight="800" math="0" shadow="0">
      <root>
        <mxCell id="1RdKp-qg5Fkg5vVF1ydG-0" />
        <mxCell id="1RdKp-qg5Fkg5vVF1ydG-1" parent="1RdKp-qg5Fkg5vVF1ydG-0" />
        <mxCell id="1RdKp-qg5Fkg5vVF1ydG-2" value="модуль интеграции ИС&lt;br&gt;&amp;nbsp;с ATOM ID&lt;br&gt;&lt;br&gt;&lt;br&gt;&lt;br&gt;&lt;div&gt;&lt;br/&gt;&lt;/div&gt;" style="rounded=0;whiteSpace=wrap;html=1;" parent="1RdKp-qg5Fkg5vVF1ydG-1" vertex="1">
          <mxGeometry x="-1140" y="370" width="540" height="150" as="geometry" />
        </mxCell>
        <mxCell id="1RdKp-qg5Fkg5vVF1ydG-3" style="edgeStyle=orthogonalEdgeStyle;rounded=0;orthogonalLoop=1;jettySize=auto;html=1;entryX=1;entryY=0.5;entryDx=0;entryDy=0;entryPerimeter=0;" parent="1RdKp-qg5Fkg5vVF1ydG-1" source="1RdKp-qg5Fkg5vVF1ydG-24" target="1RdKp-qg5Fkg5vVF1ydG-31" edge="1">
          <mxGeometry relative="1" as="geometry" />
        </mxCell>
        <mxCell id="1RdKp-qg5Fkg5vVF1ydG-4" value="" style="endArrow=none;dashed=1;html=1;rounded=0;fillColor=#f8cecc;strokeColor=#b85450;" parent="1RdKp-qg5Fkg5vVF1ydG-1" edge="1">
          <mxGeometry width="50" height="50" relative="1" as="geometry">
            <mxPoint x="-1400" y="230" as="sourcePoint" />
            <mxPoint x="-60" y="230" as="targetPoint" />
          </mxGeometry>
        </mxCell>
        <mxCell id="1RdKp-qg5Fkg5vVF1ydG-5" style="edgeStyle=orthogonalEdgeStyle;rounded=0;orthogonalLoop=1;jettySize=auto;html=1;entryX=0;entryY=0.25;entryDx=0;entryDy=0;exitX=0.25;exitY=0;exitDx=0;exitDy=0;" parent="1RdKp-qg5Fkg5vVF1ydG-1" source="1RdKp-qg5Fkg5vVF1ydG-32" target="1RdKp-qg5Fkg5vVF1ydG-10" edge="1">
          <mxGeometry relative="1" as="geometry" />
        </mxCell>
        <mxCell id="7nECF9_JR7vdD7V-j8u4-0" value="&lt;span style=&quot;&quot;&gt;&quot;input&quot;: { &amp;nbsp; &amp;nbsp; &amp;nbsp;&lt;/span&gt;&lt;br style=&quot;&quot;&gt;&lt;span style=&quot;&quot;&gt;&amp;nbsp; &amp;nbsp; &amp;nbsp; &quot;object&quot;: &quot;печенька&quot;,&amp;nbsp; &amp;nbsp; &amp;nbsp;&amp;nbsp;&lt;/span&gt;&lt;br style=&quot;&quot;&gt;&lt;span style=&quot;&quot;&gt;&amp;nbsp; &amp;nbsp; &amp;nbsp; &quot;user_token&quot;: &quot;jwt&quot;&lt;/span&gt;&lt;br style=&quot;&quot;&gt;&lt;span style=&quot;&quot;&gt;&amp;nbsp; &amp;nbsp; }&lt;/span&gt;" style="edgeLabel;html=1;align=left;verticalAlign=middle;resizable=0;points=[];fontFamily=Helvetica;fontSize=11;fontColor=default;labelBackgroundColor=default;fillColor=none;gradientColor=none;" vertex="1" connectable="0" parent="1RdKp-qg5Fkg5vVF1ydG-5">
          <mxGeometry x="0.3706" y="-3" relative="1" as="geometry">
            <mxPoint x="-54" as="offset" />
          </mxGeometry>
        </mxCell>
        <mxCell id="1RdKp-qg5Fkg5vVF1ydG-7" value="Модуль выполнения решения авторизации (&lt;span style=&quot;background-color: initial;&quot;&gt;PEP)&lt;/span&gt;" style="rounded=0;whiteSpace=wrap;html=1;" parent="1RdKp-qg5Fkg5vVF1ydG-1" vertex="1">
          <mxGeometry x="-750" y="405" width="120" height="80" as="geometry" />
        </mxCell>
        <mxCell id="1RdKp-qg5Fkg5vVF1ydG-8" style="edgeStyle=orthogonalEdgeStyle;rounded=0;orthogonalLoop=1;jettySize=auto;html=1;exitX=0.75;exitY=1;exitDx=0;exitDy=0;entryX=0.75;entryY=0;entryDx=0;entryDy=0;" parent="1RdKp-qg5Fkg5vVF1ydG-1" source="1RdKp-qg5Fkg5vVF1ydG-10" target="1RdKp-qg5Fkg5vVF1ydG-32" edge="1">
          <mxGeometry relative="1" as="geometry" />
        </mxCell>
        <mxCell id="1RdKp-qg5Fkg5vVF1ydG-9" value="&quot;decision&quot;:&quot;allow&quot;" style="edgeLabel;html=1;align=center;verticalAlign=middle;resizable=0;points=[];labelBackgroundColor=default;" parent="1RdKp-qg5Fkg5vVF1ydG-8" vertex="1" connectable="0">
          <mxGeometry x="0.1563" relative="1" as="geometry">
            <mxPoint x="45" y="-5" as="offset" />
          </mxGeometry>
        </mxCell>
        <mxCell id="1RdKp-qg5Fkg5vVF1ydG-10" value="ATOM ID APA" style="rounded=0;whiteSpace=wrap;html=1;" parent="1RdKp-qg5Fkg5vVF1ydG-1" vertex="1">
          <mxGeometry x="-797.5" y="77" width="120" height="80" as="geometry" />
        </mxCell>
        <mxCell id="1RdKp-qg5Fkg5vVF1ydG-11" style="edgeStyle=orthogonalEdgeStyle;rounded=0;orthogonalLoop=1;jettySize=auto;html=1;entryX=0;entryY=0.5;entryDx=0;entryDy=0;" parent="1RdKp-qg5Fkg5vVF1ydG-1" source="1RdKp-qg5Fkg5vVF1ydG-13" target="1RdKp-qg5Fkg5vVF1ydG-32" edge="1">
          <mxGeometry relative="1" as="geometry" />
        </mxCell>
        <mxCell id="1RdKp-qg5Fkg5vVF1ydG-12" value="Хочу печеньку" style="edgeLabel;html=1;align=center;verticalAlign=middle;resizable=0;points=[];" parent="1RdKp-qg5Fkg5vVF1ydG-11" vertex="1" connectable="0">
          <mxGeometry x="-0.1557" y="-1" relative="1" as="geometry">
            <mxPoint x="8" y="-1" as="offset" />
          </mxGeometry>
        </mxCell>
        <mxCell id="1RdKp-qg5Fkg5vVF1ydG-13" value="Пользователь" style="shape=umlActor;verticalLabelPosition=bottom;verticalAlign=top;html=1;outlineConnect=0;" parent="1RdKp-qg5Fkg5vVF1ydG-1" vertex="1">
          <mxGeometry x="-1310" y="420" width="30" height="60" as="geometry" />
        </mxCell>
        <mxCell id="1RdKp-qg5Fkg5vVF1ydG-14" style="edgeStyle=orthogonalEdgeStyle;rounded=0;orthogonalLoop=1;jettySize=auto;html=1;exitX=1;exitY=0.5;exitDx=0;exitDy=0;entryX=0;entryY=0.5;entryDx=0;entryDy=0;" parent="1RdKp-qg5Fkg5vVF1ydG-1" source="1RdKp-qg5Fkg5vVF1ydG-7" target="1RdKp-qg5Fkg5vVF1ydG-16" edge="1">
          <mxGeometry relative="1" as="geometry">
            <mxPoint x="-520" y="444.5" as="sourcePoint" />
            <mxPoint x="-420" y="444.5" as="targetPoint" />
          </mxGeometry>
        </mxCell>
        <mxCell id="1RdKp-qg5Fkg5vVF1ydG-15" value="HTTP 200 OK" style="edgeLabel;html=1;align=center;verticalAlign=middle;resizable=0;points=[];" parent="1RdKp-qg5Fkg5vVF1ydG-14" vertex="1" connectable="0">
          <mxGeometry x="-0.1806" y="-4" relative="1" as="geometry">
            <mxPoint x="1" as="offset" />
          </mxGeometry>
        </mxCell>
        <mxCell id="1RdKp-qg5Fkg5vVF1ydG-16" value="Ресурс " style="shape=image;verticalLabelPosition=bottom;labelBackgroundColor=default;verticalAlign=top;aspect=fixed;imageAspect=0;image=data:image/jpeg,/9j/4AAQSkZJRgABAQAAAQABAAD/2wCEAAkGBxMQEhUQEBMWExUXFxISFRcXERcVFxYXFRcWFhcVFxUZHiggGRslGxcVITEiJykrLi4uFx8zODUtOSgtLisBCgoKDg0OGxAQGy8lICYvNSs1LS4tLS8vLS0tLS0tLS0tLS0tLS0tLS0tLS0tLS0tLS0rLTUtLS0tLy0tLS0tLf/AABEIAOEA4QMBIgACEQEDEQH/xAAcAAEAAgMBAQEAAAAAAAAAAAAABgcDBAUCAQj/xABGEAABAwIDBQUEBgYHCQAAAAABAAIDBBEFEiEGMUFRYQcTcYGRIjKhsQgUQlJiwSNDcpKisiQzY4Kj4fAVFkRzk5TC0fH/xAAZAQEAAwEBAAAAAAAAAAAAAAAAAgMEBQH/xAAnEQEAAgICAgEEAgMBAAAAAAAAAQIDEQQxEiFBExQiQlGxMjNhBf/aAAwDAQACEQMRAD8AvFERAREQEREBERAREQEREBERAREQEREBERAREQEREBERAREQEREBERAREQEREBFhpJXPY1z2GNxGrC4OLel26HyWZAREQEREBERAREQEREBERAREQEREBERAREQEREBERAREQEREBERAREQEREBERAREQEREBERAREQEREBERAREQEREBERAREQEREBERAREQEXA2q2tpsOZeZ13kXZE2xkd5fZH4jYKmNqNuKzECW5jDCf1UbiAR/aP0L/DQdFXfLWq3HhtfpeVbtHSQXEtTCwjgZm5v3b3+Ci+Jdq9DHpEJag7vYjyN83SZdPAFUhHS20Fh4BbLKNZ55M/DVXiV+ZWhH2xsv7VG4DmJ2E+haPmupB2s0ThdzJ2HkY2G/gWvPxsqfbSgb7L6IhwsofcXT+0ovOj7RMOk/4gMPJ8b2fEtt8V3sOxSCoGaCaOUcSyRr7eNjovzcWBSXZLCAWOncCCSBG4Ese0NvdzXtIIuTwP2V7PM8Y3aEJ4cT1K+EUAoNpqimH6f+kxC5LrtZM0DXfo2S3XKeZKluCY5T1rO8ppBIBbMNzmk8HNOrT4rRiz0yx+MsuTDfH26SIiuVCIiAiIgIiICIiAiIgIiICIiAiIgKudp9t5JXupsOIAaSySosDdw0LIAdCQd7zcC1hfeOpt5jJymihcWveLyuabObGfsh32XO57wL2sSCIfTUbWNyNGUAZRbSwtYAcli5PI8fxr3/TdxON5/nbr+3OqtnWTAl7nGQ3cZCS5znWsC4uuXDdv5KGQnRWFhVD3DMmdz9Sbu68FFZ9mqhryI2h7LmxzgadQSNVix373Lfev8Q5sb7L0+byXapdlJXH9K9rByb7TvyA+K7tJs7Tx2OTORxeS6/W3u/BStkrCMVlHMGwJ9SQ992Rb78Xfsj8/mpRVYBA+PumsDLe64D2geZO93W66QXsLPbJMynrSLUWyJzXnkBaD7rAbu8SdylTWADKBYAWAGlhuFl9C+qNrTPZpE8Za2mp3U7JC9z3+1dwLmttc3A3XsPHMVHMNxCajmbPA7K9vo4cWvH2mnl8jYrc2ijLauQcyHeRaD87jyWB0OZtlop+MbhGYifUr42S2kjxCASx+y4WbIy9yx3LqDvB4+NwO4vzvsjjrsNqmy692bMmHNhOpA+83ePAjiv0NG8OAINwQCCOIO4rqYcnnX325WfF9O3/HpERXKBERAREQEREBERAREQEREBR7bTaH6jCC2xmkPdwtOozWuXuH3WjU89BxUhVAbcbTGprHzxnMxt6envqMjD+kkHPM+/iGt5KrNea19drsGOL399NqpxRtO0ySudJI8k6n23ni4nh4+AHJcxm1z76wtt+2b+tlwZJHSuzSOzOsBfkBuAA0AXx4AXOjFH7dupOSfj1Cb4HjraklmUscBmte4IvbQ6cx6rsBQnZoiG8xBe+QOjhjbbM/KQXHXRrQQBmOg8xeR4UypzPfUvYAQAyKMXDNTqXkXcbW6Kq9Ne1tL79OsvoKx5rdVrYVUySszSxmN1yLHkOOv+tFTpKWTFZpGROdC3M8WsLX8TbjYcFEhSVs3tkS3/E7Jv5NJFlNwV6BUq318IzDTwKlkhiDZX53XvvJyjT2QT/rVdMFYgV6BVczudvNIvtvRe5UNG72H+F7tPxI9FwaeQEKXYlixikMc9O407gB3zRnaLj2hKwatH4v/qjON4T9WLZInB8T/cN72uLgX4i24rRTcRqUYtG/TUrYri6t/sr2ibVUop3aS07WxkfejAsxw8hY+HUKoy+4WfZbGTQVkdRezL5JeRicQH38NHeLAtGC/jZTycfnX0/RiL4Cvq6bkiIiAiIgIiICIiAiIgIiIOBt5iJpsPqZmGzxE5rDyfJaNluuZwVCYhhobTsc39XYHwOl/UD1Vx9r0lqFrCbZ54G255SZbf4d/JV9h263QfmufzMkxaNOpwMUWpZCopNwbqToANSfBSLDtmHu1nOUaHK03cehO4fFSSOBgOYMaDzDQD6rYCy2zTPTXXBEdtGnpoqVr5nFrBbVx0DI2+6wdBv6ucTxXM/38ob2713j3T7fK653aXVBjKdjwXRulzSNBsXNZa7b/wB4/BRPbDHaaqMQpacQsjBHuta517eyQw2sLc7+0dy0YePGSvlZkz8mcVvGq3aGtjnYJIXh7TuIN/I8j0WyCqp2GxgnELRsbFHMHZo2XyNysJBF+rf4ipHim0T5HFsJyMGgI953W/AcrKnLgmt/GF2LkRenlKXVFbHH/WSNb0LgD6L3T1sb/ckY7weCfRVoYibk68Tc715vlILTYggg33Hmo/RjXaX1FqhegVhjJsL77C9t1+NlCpseiq6uanmqjSU8OnsvEb53tNnfpCNGix9kan5QxYZyTqHmXLGONynqhO1tKYXMbFpE8vkLPsskFruZyDsxu3dfUbyoFHi4hqJnRVNRkb3hp3XzF7gRkEjXG2Qi99L7tFb2EVDK2limkY052hxBFwHbja/UFW5MNsHve4lVizVyzrWphBmAuIa0FzjoABcnwClGFbOZWF84BeQQG7wwEa+LiPRSCnpI4/6tjW332aBfxKyOGiovkmY9NER7TPYvETUUcT3G72gwycPbhJjcbdS2/mu4oN2YyWNbAT7s7JR0EsTPzY4+ZU5XbxW8qRZxMtfG8wIiKxAREQEREBERAREQEREFfdtBtS0xO4VTSf8At6lVnguKOkl7trRlsSSTrYcbeJGnVWb21PZ9QYxxsX1ELGeNnkn90O9VWmA0QicXXuSMu61hv/ILnczXl7706vA8prqOtpQCsjVzaKne173ukLmutladzfiui0rE6UOLths99eiDWuDZGEuYTuNxYtNtwOmvRQOPs8rSbERtHMyafAE/BWvlNwb7uCyrRTkWx11DNl4mPJbylFdndj2UbHve/PK5jml9rBjSDfKN/n0UbiOis8i65L9mqY39gi/J7hbw1UIzTMzNkZwxERFUGlqraWJ8Bp6ldjBMDfOWvkBZHv1Fi7oBy6qUUeCwRG7Ixfm72j5X3LdnmawFzjYC3x0AHMk2Fktl36rBXHr3MswVTbbbHzxzPngY6SJ7i/2RmcwuNyC0a2uTYq1YnkgEgtPEG1x000WRRw5ZxW3D3LhrlrqX56ioJXuyNje527KGOJ9LK9dk6B1NSQwye81vtDfYuJcR5Xst+RzvsgHnc/66LI0/n/krc+ecsRGleDiximZ3tkutLDsObCXlrnOzuzHMb237vVbd1Gdp8cLbwxGx3PcN4/C3rzKyxWZ9Qun0mvZrKHVVeGkEZaM3BuL2mBHiLKwVTnYbW2qKqAn3o4pAP+W4tcf8RquNdvBGscQ43I/2SIiK1SIiICIiAiIgIiICIiCnvpBV1vqcA35pZz0LcrGfzP8ARRTDp9x3bjY6WPEEcCu/2ktNRtDRQXu0fUmkcLGd73+Zb8guRtvTmgrqhjho55qYfxNmJcQPCTvG+ACxcrHNo3Hw6PCyxSdS7MD7rZaVW0mJTv1Mjm8g1xaB6fmtnA6uUTsDXuOZwDgXEgjje/S6x/RmI3tv+5rM6iFhgr2CsAK5mL48Kd7WZM5IzH2rWF7ctToVVETb1C68xEbl3AV9BWrR1bJW543Bw+R5EcD0WwCoodtOYVItkMT9BcuDmm/HQEgj0t1WOmoJC8S1Dw8t1YxvuMO7MNBc23X3XOpXSugKl5I+D6vQK0cTxKOnZnkPQAb3HoovVbRTS+4e6b01Pm4/5L2tJt08m8VTbvBfLcX5X19F6uq1ikd3jXNJc/M0g3JJddWOXJeviVt5NfFq3uIXycQLD9o6D4lV9M85eLnOPiST8ypLtrU5Y2M4Odcn9kaD4/Be+y/BDWVoleLxU9pTpoX/AKtvqC7+51V2CnkpzZIrvb3sJSvw/HW0shu4tdE4gae3A2ew5gFoF+ivVU7iLb7UxAb7sJ8qVx+SuJdPHGomHJyTuYkREVisREQEREBERAREQEREFL7ejutpKGR2jX/U9eF+9kjt/L6qY9quyJxGmzwtvUQZnxc3tPvxX62BHVo5lcPt4wZ76eGuhvnpnkOI3tZIW2f/AHZGs/eJU/2YxlldSw1Ue6RgcR91w0ew9WuDh5KOu4T31MPy/BJwO8aWIsR0I4Fd7ZCIGR8h4ANHi7f8B8VYnaZ2bfWHOraBoExu6WLQCXm9nAScxud0O+rNn6t0UxieC0klrmuBa5rm8CDqDvFliz0mKy38bJW142nrXKNbXxWfHLwILD0sbj5n0Xchnus0jA9pa4XaQQRzBWClvGdupkp5V0gtNVPiOeJ5bzAOh8RuKsGgqO8jZIdMzWu9RdRt+yjbjLK4DiCATboRZSWFoaA0aAAAdANArMtqzrSjFS1e2wl1jDlqVeJtikjicHEyGwsNBw19VTELZ9PGM4Q2pDczi0tvYjXfa9wfBa1HszDHq7NIfxHT0H53XYzLyXKXlOtPPCJnbFT0MUWscbWnmGi/729bBesTnrUqag6NY0vkeckbALue87gB8TwABJIGq89zOktRWNssodM9kEbc8kjsrBbdxLzyAFyTwsrU2fwSKhhEMIsLlzjYAucd7j6AdAAohhcLcEjbUVsc08sjT308MQkjp2ix7sgEODd13BpuW62AaBz9re0iKrh+pYSXzVFQe5B7p8eRrveILwPatfUaDVxOmvU4+GMUbntxuTmnNOq9NLs+/p+OVmIDWOPOGO4HNaGIg9Yo3nzVwKObBbLtwykbACHSE95M4bnPIAsPwgANHQX4lSNaaxqGW87kREUkRERAREQEREBERAREQYqumZKx0UjQ9j2ljmkXDmuFiCORCpCvxKp2VqX00IE9JP8ApoWyEjKfdcA8faHsg6G4yHQkq9Fwds9losTpzTy+yfeikAu6N43OHMcCOIPmvJh7E/yjPZrtrNikj++mp2FrSfqzIZBIBcASd691nAbjlB94Xtx6u2WwUNe4VDD3NS3dIBcPsLBsrftdDvHUaKMdl3ZzU4dVyVNU6OzWPhjDHF2fOWkvNwMos0ab9Ty1tZea3GrJeXjbdVBVtPLRy9xVM7t/DW7JB96J/wBodN44gLYiqBwPkrqxPDYamMxVEbJWHe17Q4X4HXceqgWL9lbSc1DUvh/s5QZ4/BriQ9vmXLDk4XzR08P/AKPrWSEcZJdezMBvIHiQFw9tsBxDDYWvnlhMb5BE0xOfnJLXO1DmCzbNO48lFsGw2esc5tPC+dzQHODQCQCbAm/VUxxbfK63Np+qyDKBqSB5rXfiUI3yx/8AUb/7UQk2XrmXvQ1GnKne74tBv5Lm10ckBDZoZIiRcCSJ8ZIHEB4Fwn2yP3cT0m9TtJTs3Pznkxpd8d3xXPftfGP1b7eLfkuPgGz1XiF/qkOdodkc/M1rWmwPtFx5EHS+9WXs32PRtGfEJDM4j+ric5jGnrILPf8Aw+BVleLtVfmaRqixA1bmxUjHTSu+wBYRj70r9zGjnx4XVq7J7KMox3shEtQ4WfJawaDYmOIfZZceLrAngB1sIweCkj7qmiZEzfZrQLnm473Hqblby14uPXH7jtjz8q+X1PSn+38z2pQ3P3DjI1wbfKZbtyBwG82zZQeRst3sf2EfS/0+rYWzOBbDG73o2O3vcOD3DS28C99SQLSsvqt8fe1Hl60IiKSIiIgIiICIiAiIgIiICIiAiIgIiICIiCq/pB3+qU2mn1jU9e6ksPn6LW+j3Sjuqua2pkiiv0Ywut/iLr9u8GbDQ7T2J4X9dQ6PT99aP0fJQaSpZxFRmPOzoowP5Sofss/RaiqL6QdEO7pKjiHyQ+T25/nH8Vbqrbt6y/7Ojvv+sxZepyS3/hzL2/SNO3O+j4/9BVt5Sxu9WW/8VbSq36P0FqOof96oy+TYoz83FWklei/+QiIpIiIiAiIgIiICIiAiIgIiICIiAiIgIiICIiDXxGtZTxSTynKyNj5HnfZrAXE28Avz1tZ2q1tY4tp3Gkh1Aaw2lcOb5d4PRtrdd6/QmJULKiKSCUXZIx8Txe12vBabHhoVQe0PY/XQOJpctXHrazmxyAfia8gHxafIKF9/CdNfKvqid8js8j3SO+89xe71cSVcn0eGnLWHW2anA5XAkJ87FvwUQwjsnxOcjPE2nbpd0sjSbcwxhJJ6GyvjZPZ2LDaZlLDcgXc5x9573e893ytwAA4LytZ3uUr2jWnZVT/SEefq9K3gZnk+IjcB/MVbCinaRsp/tSkMTCBMw95CToMwFi13RwuOhseCnbpXXtQ2zW3Vdh7O6ppG93cu7t8TXNzHeb2Dv4lY+y3bQx7hHiEQivYd9GSYweb4zdzR1Bd5KnsVw2akeY6mJ8LgbWe0tv8Asu3O8QSFlwPBKiuf3dJE6Z2l8o9lt+L3n2WjxKqibQvmtZh+t43hwDmkEEAgg3BB1BB4helytlMLdSUdPTPdmdFFHG4jcS0a26cB0XVVzOIiICIiAiIgIiICIiAiIgIiICIiAiIgIiICIiAiIgIiIPEkQcLOAcORAI9CvrIw0WaAANwAsB5L0iAiIgIiICIiAiIgIiICIiAiIgIiICIiAiIgIiICIiAiIgIiICIiAiIgIiICIiAiIgIiICIiD//Z;" parent="1RdKp-qg5Fkg5vVF1ydG-1" vertex="1">
          <mxGeometry x="-344" y="405" width="80" height="80" as="geometry" />
        </mxCell>
        <mxCell id="1RdKp-qg5Fkg5vVF1ydG-17" style="edgeStyle=orthogonalEdgeStyle;rounded=0;orthogonalLoop=1;jettySize=auto;html=1;exitX=0;exitY=0;exitDx=0;exitDy=27.5;exitPerimeter=0;entryX=1;entryY=0.25;entryDx=0;entryDy=0;" parent="1RdKp-qg5Fkg5vVF1ydG-1" source="1RdKp-qg5Fkg5vVF1ydG-18" target="1RdKp-qg5Fkg5vVF1ydG-10" edge="1">
          <mxGeometry relative="1" as="geometry" />
        </mxCell>
        <mxCell id="1RdKp-qg5Fkg5vVF1ydG-18" value="Ролевая модель:&lt;br&gt;Матрица доступа ABAC" style="shape=cylinder3;whiteSpace=wrap;html=1;boundedLbl=1;backgroundOutline=1;size=15;" parent="1RdKp-qg5Fkg5vVF1ydG-1" vertex="1">
          <mxGeometry x="-510" y="70" width="120" height="110" as="geometry" />
        </mxCell>
        <mxCell id="1RdKp-qg5Fkg5vVF1ydG-19" style="edgeStyle=orthogonalEdgeStyle;rounded=0;orthogonalLoop=1;jettySize=auto;html=1;dashed=1;dashPattern=8 8;" parent="1RdKp-qg5Fkg5vVF1ydG-1" source="1RdKp-qg5Fkg5vVF1ydG-20" target="1RdKp-qg5Fkg5vVF1ydG-13" edge="1">
          <mxGeometry relative="1" as="geometry" />
        </mxCell>
        <mxCell id="1RdKp-qg5Fkg5vVF1ydG-20" value="Атрибуты пользователя (субьекта)" style="swimlane;fontStyle=0;childLayout=stackLayout;horizontal=1;startSize=30;horizontalStack=0;resizeParent=1;resizeParentMax=0;resizeLast=0;collapsible=1;marginBottom=0;whiteSpace=wrap;html=1;" parent="1RdKp-qg5Fkg5vVF1ydG-1" vertex="1">
          <mxGeometry x="-1380" y="620" width="170" height="120" as="geometry" />
        </mxCell>
        <mxCell id="1RdKp-qg5Fkg5vVF1ydG-21" value="Должность" style="text;strokeColor=none;fillColor=none;align=left;verticalAlign=middle;spacingLeft=4;spacingRight=4;overflow=hidden;points=[[0,0.5],[1,0.5]];portConstraint=eastwest;rotatable=0;whiteSpace=wrap;html=1;" parent="1RdKp-qg5Fkg5vVF1ydG-20" vertex="1">
          <mxGeometry y="30" width="170" height="30" as="geometry" />
        </mxCell>
        <mxCell id="1RdKp-qg5Fkg5vVF1ydG-22" value="Отдел" style="text;strokeColor=none;fillColor=none;align=left;verticalAlign=middle;spacingLeft=4;spacingRight=4;overflow=hidden;points=[[0,0.5],[1,0.5]];portConstraint=eastwest;rotatable=0;whiteSpace=wrap;html=1;" parent="1RdKp-qg5Fkg5vVF1ydG-20" vertex="1">
          <mxGeometry y="60" width="170" height="30" as="geometry" />
        </mxCell>
        <mxCell id="1RdKp-qg5Fkg5vVF1ydG-23" value="Роль в системе" style="text;strokeColor=none;fillColor=none;align=left;verticalAlign=middle;spacingLeft=4;spacingRight=4;overflow=hidden;points=[[0,0.5],[1,0.5]];portConstraint=eastwest;rotatable=0;whiteSpace=wrap;html=1;" parent="1RdKp-qg5Fkg5vVF1ydG-20" vertex="1">
          <mxGeometry y="90" width="170" height="30" as="geometry" />
        </mxCell>
        <mxCell id="1RdKp-qg5Fkg5vVF1ydG-24" value="Атрибуты ресурса (объекта)" style="swimlane;fontStyle=0;childLayout=stackLayout;horizontal=1;startSize=30;horizontalStack=0;resizeParent=1;resizeParentMax=0;resizeLast=0;collapsible=1;marginBottom=0;whiteSpace=wrap;html=1;" parent="1RdKp-qg5Fkg5vVF1ydG-1" vertex="1">
          <mxGeometry x="-550" y="595" width="170" height="120" as="geometry" />
        </mxCell>
        <mxCell id="1RdKp-qg5Fkg5vVF1ydG-25" value="Тип" style="text;strokeColor=none;fillColor=none;align=left;verticalAlign=middle;spacingLeft=4;spacingRight=4;overflow=hidden;points=[[0,0.5],[1,0.5]];portConstraint=eastwest;rotatable=0;whiteSpace=wrap;html=1;" parent="1RdKp-qg5Fkg5vVF1ydG-24" vertex="1">
          <mxGeometry y="30" width="170" height="30" as="geometry" />
        </mxCell>
        <mxCell id="1RdKp-qg5Fkg5vVF1ydG-26" value="Создатель" style="text;strokeColor=none;fillColor=none;align=left;verticalAlign=middle;spacingLeft=4;spacingRight=4;overflow=hidden;points=[[0,0.5],[1,0.5]];portConstraint=eastwest;rotatable=0;whiteSpace=wrap;html=1;" parent="1RdKp-qg5Fkg5vVF1ydG-24" vertex="1">
          <mxGeometry y="60" width="170" height="30" as="geometry" />
        </mxCell>
        <mxCell id="XqGYk8e1zp2RBn89PxZh-1" value="Добавлен в группу X" style="text;strokeColor=none;fillColor=none;align=left;verticalAlign=middle;spacingLeft=4;spacingRight=4;overflow=hidden;points=[[0,0.5],[1,0.5]];portConstraint=eastwest;rotatable=0;whiteSpace=wrap;html=1;" parent="1RdKp-qg5Fkg5vVF1ydG-24" vertex="1">
          <mxGeometry y="90" width="170" height="30" as="geometry" />
        </mxCell>
        <mxCell id="1RdKp-qg5Fkg5vVF1ydG-27" value="ATOM ID" style="text;html=1;align=center;verticalAlign=middle;whiteSpace=wrap;rounded=0;" parent="1RdKp-qg5Fkg5vVF1ydG-1" vertex="1">
          <mxGeometry x="-1360" y="190" width="60" height="30" as="geometry" />
        </mxCell>
        <mxCell id="1RdKp-qg5Fkg5vVF1ydG-29" style="edgeStyle=orthogonalEdgeStyle;rounded=0;orthogonalLoop=1;jettySize=auto;html=1;exitX=0.5;exitY=0;exitDx=0;exitDy=0;exitPerimeter=0;entryX=0.5;entryY=1;entryDx=0;entryDy=0;" parent="1RdKp-qg5Fkg5vVF1ydG-1" source="1RdKp-qg5Fkg5vVF1ydG-31" target="1RdKp-qg5Fkg5vVF1ydG-7" edge="1">
          <mxGeometry relative="1" as="geometry" />
        </mxCell>
        <mxCell id="1RdKp-qg5Fkg5vVF1ydG-30" value="Ресурс.owner = &quot;Владелец Печеньки&quot;" style="edgeLabel;html=1;align=center;verticalAlign=middle;resizable=0;points=[];" parent="1RdKp-qg5Fkg5vVF1ydG-29" vertex="1" connectable="0">
          <mxGeometry x="0.2212" y="-4" relative="1" as="geometry">
            <mxPoint as="offset" />
          </mxGeometry>
        </mxCell>
        <mxCell id="1RdKp-qg5Fkg5vVF1ydG-31" value="БД&lt;div&gt;информация c динамическими&amp;nbsp; атрибутами объектов&amp;nbsp;&lt;/div&gt;" style="shape=cylinder3;whiteSpace=wrap;html=1;boundedLbl=1;backgroundOutline=1;size=15;" parent="1RdKp-qg5Fkg5vVF1ydG-1" vertex="1">
          <mxGeometry x="-751.25" y="600" width="122.5" height="110" as="geometry" />
        </mxCell>
        <mxCell id="1RdKp-qg5Fkg5vVF1ydG-32" value="Запрос решения APA" style="rounded=0;whiteSpace=wrap;html=1;" parent="1RdKp-qg5Fkg5vVF1ydG-1" vertex="1">
          <mxGeometry x="-1120" y="410" width="140" height="80" as="geometry" />
        </mxCell>
        <mxCell id="1RdKp-qg5Fkg5vVF1ydG-33" value="&quot;decision&quot;:&quot;allow&quot;" style="edgeStyle=orthogonalEdgeStyle;rounded=0;orthogonalLoop=1;jettySize=auto;html=1;entryX=0;entryY=0.5;entryDx=0;entryDy=0;exitX=1;exitY=0.5;exitDx=0;exitDy=0;" parent="1RdKp-qg5Fkg5vVF1ydG-1" source="1RdKp-qg5Fkg5vVF1ydG-32" target="1RdKp-qg5Fkg5vVF1ydG-7" edge="1">
          <mxGeometry relative="1" as="geometry">
            <mxPoint x="-1560" y="447" as="sourcePoint" />
            <mxPoint x="-1050" y="447" as="targetPoint" />
          </mxGeometry>
        </mxCell>
        <mxCell id="tj8U38v93DzORlsFeIVC-0" value="ABAC" style="rounded=0;whiteSpace=wrap;html=1;fillColor=#e1d5e7;strokeColor=#9673a6;" parent="1RdKp-qg5Fkg5vVF1ydG-1" vertex="1">
          <mxGeometry x="-1390" y="30" width="120" height="60" as="geometry" />
        </mxCell>
        <mxCell id="i8Ge45IcYTscWN7eAcVW-0" style="edgeStyle=orthogonalEdgeStyle;rounded=0;orthogonalLoop=1;jettySize=auto;html=1;exitX=1;exitY=0.5;exitDx=0;exitDy=0;entryX=0.5;entryY=1;entryDx=0;entryDy=0;dashed=1;dashPattern=8 8;" parent="1RdKp-qg5Fkg5vVF1ydG-1" source="1RdKp-qg5Fkg5vVF1ydG-25" target="1RdKp-qg5Fkg5vVF1ydG-16" edge="1">
          <mxGeometry relative="1" as="geometry" />
        </mxCell>
        <mxCell id="rGj96LduDUAp4SMRQE1v-0" value="ИС" style="text;html=1;align=center;verticalAlign=middle;whiteSpace=wrap;rounded=0;" parent="1RdKp-qg5Fkg5vVF1ydG-1" vertex="1">
          <mxGeometry x="-1360" y="250" width="60" height="30" as="geometry" />
        </mxCell>
        <mxCell id="oIfXqrR5jzFw0_tOOJIs-1" style="edgeStyle=orthogonalEdgeStyle;rounded=0;orthogonalLoop=1;jettySize=auto;html=1;entryX=0.5;entryY=0;entryDx=0;entryDy=0;" parent="1RdKp-qg5Fkg5vVF1ydG-1" source="oIfXqrR5jzFw0_tOOJIs-0" target="1RdKp-qg5Fkg5vVF1ydG-10" edge="1">
          <mxGeometry relative="1" as="geometry">
            <Array as="points">
              <mxPoint x="-304" y="50" />
              <mxPoint x="-737" y="50" />
            </Array>
          </mxGeometry>
        </mxCell>
        <mxCell id="oIfXqrR5jzFw0_tOOJIs-0" value="Политика" style="shape=cylinder3;whiteSpace=wrap;html=1;boundedLbl=1;backgroundOutline=1;size=15;" parent="1RdKp-qg5Fkg5vVF1ydG-1" vertex="1">
          <mxGeometry x="-369" y="70" width="130" height="110" as="geometry" />
        </mxCell>
        <mxCell id="w4dnPsJkksRm4VcPqbIK-0" value="&lt;p style=&quot;margin-bottom:0cm;margin-bottom:.0001pt;line-height:&amp;lt;br/&amp;gt;normal&quot; class=&quot;MsoNormal&quot;&gt;&lt;span style=&quot;font-size:9.0pt;mso-bidi-font-size:11.0pt&quot;&gt;&lt;b&gt;Бизнес правило:&lt;/b&gt; Пользователь с [атрибут-роль]&lt;br&gt;[атрибут X] может [получить доступ] [прочитать] [изменить] [удалить] свой блог если у&lt;br&gt;пользователя имеется&amp;nbsp;&lt;/span&gt;[атрибут-роль] и&amp;nbsp;&lt;span style=&quot;font-size:9.0pt;mso-bidi-font-size:11.0pt&quot;&gt;у объекта есть [атрибут X] и&amp;nbsp;&lt;/span&gt;&lt;span style=&quot;background-color: transparent; color: light-dark(rgb(0, 0, 0), rgb(255, 255, 255));&quot;&gt;[атрибут Y]&lt;/span&gt;&lt;/p&gt;" style="rounded=0;whiteSpace=wrap;html=1;fillColor=#d5e8d4;strokeColor=#82b366;" parent="1RdKp-qg5Fkg5vVF1ydG-1" vertex="1">
          <mxGeometry x="-690" y="730" width="541.25" height="60" as="geometry" />
        </mxCell>
        <mxCell id="w4dnPsJkksRm4VcPqbIK-1" style="edgeStyle=orthogonalEdgeStyle;rounded=0;orthogonalLoop=1;jettySize=auto;html=1;entryX=1;entryY=0.5;entryDx=0;entryDy=0;entryPerimeter=0;dashed=1;dashPattern=8 8;exitX=1;exitY=0.5;exitDx=0;exitDy=0;" parent="1RdKp-qg5Fkg5vVF1ydG-1" source="w4dnPsJkksRm4VcPqbIK-0" target="oIfXqrR5jzFw0_tOOJIs-0" edge="1">
          <mxGeometry relative="1" as="geometry">
            <Array as="points">
              <mxPoint x="-130" y="125" />
            </Array>
          </mxGeometry>
        </mxCell>
      </root>
    </mxGraphModel>
  </diagram>
  <diagram name="АРХ.AUTHZ.3" id="zAtyerUtefmMU4SNjXhD">
    <mxGraphModel dx="3233" dy="964" grid="1" gridSize="10" guides="1" tooltips="1" connect="1" arrows="1" fold="1" page="1" pageScale="1" pageWidth="1500" pageHeight="800" math="0" shadow="0">
      <root>
        <mxCell id="IR8KiJRRjraTLiIBn78g-0" />
        <mxCell id="IR8KiJRRjraTLiIBn78g-1" parent="IR8KiJRRjraTLiIBn78g-0" />
        <mxCell id="IR8KiJRRjraTLiIBn78g-2" value="модуль интеграции ИС&lt;br&gt;&amp;nbsp;с ATOM ID&lt;br&gt;&lt;br&gt;&lt;br&gt;&lt;br&gt;&lt;div&gt;&lt;br/&gt;&lt;/div&gt;" style="rounded=0;whiteSpace=wrap;html=1;" parent="IR8KiJRRjraTLiIBn78g-1" vertex="1">
          <mxGeometry x="-1140" y="370" width="540" height="150" as="geometry" />
        </mxCell>
        <mxCell id="IR8KiJRRjraTLiIBn78g-4" value="" style="endArrow=none;dashed=1;html=1;rounded=0;fillColor=#f8cecc;strokeColor=#b85450;" parent="IR8KiJRRjraTLiIBn78g-1" edge="1">
          <mxGeometry width="50" height="50" relative="1" as="geometry">
            <mxPoint x="-1440" y="230" as="sourcePoint" />
            <mxPoint x="-50" y="230" as="targetPoint" />
          </mxGeometry>
        </mxCell>
        <mxCell id="IR8KiJRRjraTLiIBn78g-5" style="edgeStyle=orthogonalEdgeStyle;rounded=0;orthogonalLoop=1;jettySize=auto;html=1;entryX=0;entryY=0.25;entryDx=0;entryDy=0;exitX=0.25;exitY=0;exitDx=0;exitDy=0;" parent="IR8KiJRRjraTLiIBn78g-1" source="IR8KiJRRjraTLiIBn78g-32" target="IR8KiJRRjraTLiIBn78g-10" edge="1">
          <mxGeometry relative="1" as="geometry" />
        </mxCell>
        <mxCell id="z4hPuyeVVgJPC7VO1WUz-0" value="&lt;span style=&quot;color: rgba(0, 0, 0, 0); font-family: monospace; font-size: 0px; text-align: start; background-color: rgb(236, 236, 236);&quot;&gt;%3CmxGraphModel%3E%3Croot%3E%3CmxCell%20id%3D%220%22%2F%3E%3CmxCell%20id%3D%221%22%20parent%3D%220%22%2F%3E%3CmxCell%20id%3D%222%22%20value%3D%22%26quot%3Binput%26quot%3B%3A%20%7B%20%C2%A0%20%C2%A0%20%C2%A0%20%26%2310%3B%C2%A0%20%C2%A0%20%C2%A0%20%26quot%3Bobject%26quot%3B%3A%20%26quot%3B%D0%BF%D0%B5%D1%87%D0%B5%D0%BD%D1%8C%D0%BA%D0%B0%26quot%3B%2C%20%C2%A0%20%C2%A0%20%C2%A0%20%C2%A0%20%C2%A0%20%C2%A0%20%C2%A0%20%C2%A0%20%C2%A0%20%C2%A0%20%C2%A0%20%C2%A0%20%26%2310%3B%C2%A0%20%C2%A0%20%C2%A0%20%26quot%3Buser_token%26quot%3B%3A%20%26quot%3Bjwt%26quot%3B%26%2310%3B%C2%A0%20%C2%A0%20%7D%22%20style%3D%22edgeLabel%3Bhtml%3D1%3Balign%3Dleft%3BverticalAlign%3Dmiddle%3Bresizable%3D0%3Bpoints%3D%5B%5D%3Bspacing%3D0%3B%22%20vertex%3D%221%22%20connectable%3D%220%22%20parent%3D%221%22%3E%3CmxGeometry%20x%3D%22-1000%22%20y%3D%22-550%22%20as%3D%22geometry%22%2F%3E%3C%2FmxCell%3E%3C%2Froot%3E%3C%2FmxGraphModel%3E&lt;/span&gt;" style="edgeLabel;html=1;align=center;verticalAlign=middle;resizable=0;points=[];fontFamily=Helvetica;fontSize=11;fontColor=default;labelBackgroundColor=default;fillColor=none;gradientColor=none;" vertex="1" connectable="0" parent="IR8KiJRRjraTLiIBn78g-5">
          <mxGeometry x="0.4958" y="1" relative="1" as="geometry">
            <mxPoint as="offset" />
          </mxGeometry>
        </mxCell>
        <mxCell id="N4ImctA9VdqnQCqmfIdo-0" value="&lt;span style=&quot;&quot;&gt;&quot;input&quot;: { &amp;nbsp; &amp;nbsp; &amp;nbsp;&lt;/span&gt;&lt;br style=&quot;&quot;&gt;&lt;span style=&quot;&quot;&gt;&amp;nbsp; &amp;nbsp; &amp;nbsp; &quot;object&quot;: &quot;печенька&quot;,&amp;nbsp;&lt;/span&gt;&lt;br style=&quot;&quot;&gt;&lt;span style=&quot;&quot;&gt;&amp;nbsp; &amp;nbsp; &amp;nbsp; &quot;user_token&quot;: &quot;jwt&quot;&lt;/span&gt;&lt;br style=&quot;&quot;&gt;&lt;span style=&quot;&quot;&gt;&amp;nbsp; &amp;nbsp; }&lt;/span&gt;" style="edgeLabel;html=1;align=left;verticalAlign=middle;resizable=0;points=[];fontFamily=Helvetica;fontSize=11;fontColor=default;labelBackgroundColor=default;fillColor=none;gradientColor=none;" vertex="1" connectable="0" parent="IR8KiJRRjraTLiIBn78g-5">
          <mxGeometry x="0.2997" y="-2" relative="1" as="geometry">
            <mxPoint x="-46" as="offset" />
          </mxGeometry>
        </mxCell>
        <mxCell id="IR8KiJRRjraTLiIBn78g-7" value="Модуль выполнения решения авторизации (&lt;span style=&quot;background-color: initial;&quot;&gt;PEP)&lt;/span&gt;" style="rounded=0;whiteSpace=wrap;html=1;" parent="IR8KiJRRjraTLiIBn78g-1" vertex="1">
          <mxGeometry x="-750" y="405" width="120" height="80" as="geometry" />
        </mxCell>
        <mxCell id="IR8KiJRRjraTLiIBn78g-8" style="edgeStyle=orthogonalEdgeStyle;rounded=0;orthogonalLoop=1;jettySize=auto;html=1;exitX=0.75;exitY=1;exitDx=0;exitDy=0;entryX=0.75;entryY=0;entryDx=0;entryDy=0;" parent="IR8KiJRRjraTLiIBn78g-1" source="IR8KiJRRjraTLiIBn78g-10" target="IR8KiJRRjraTLiIBn78g-32" edge="1">
          <mxGeometry relative="1" as="geometry" />
        </mxCell>
        <mxCell id="IR8KiJRRjraTLiIBn78g-9" value="&quot;decision&quot;:&quot;allow&quot;" style="edgeLabel;html=1;align=center;verticalAlign=middle;resizable=0;points=[];labelBackgroundColor=default;" parent="IR8KiJRRjraTLiIBn78g-8" vertex="1" connectable="0">
          <mxGeometry x="0.1563" relative="1" as="geometry">
            <mxPoint x="45" y="-5" as="offset" />
          </mxGeometry>
        </mxCell>
        <mxCell id="IR8KiJRRjraTLiIBn78g-10" value="ATOM ID APA" style="rounded=0;whiteSpace=wrap;html=1;" parent="IR8KiJRRjraTLiIBn78g-1" vertex="1">
          <mxGeometry x="-792" y="107" width="120" height="80" as="geometry" />
        </mxCell>
        <mxCell id="IR8KiJRRjraTLiIBn78g-11" style="edgeStyle=orthogonalEdgeStyle;rounded=0;orthogonalLoop=1;jettySize=auto;html=1;entryX=0;entryY=0.5;entryDx=0;entryDy=0;" parent="IR8KiJRRjraTLiIBn78g-1" source="IR8KiJRRjraTLiIBn78g-13" target="IR8KiJRRjraTLiIBn78g-32" edge="1">
          <mxGeometry relative="1" as="geometry" />
        </mxCell>
        <mxCell id="IR8KiJRRjraTLiIBn78g-12" value="Хочу печеньку" style="edgeLabel;html=1;align=center;verticalAlign=middle;resizable=0;points=[];" parent="IR8KiJRRjraTLiIBn78g-11" vertex="1" connectable="0">
          <mxGeometry x="-0.1557" y="-1" relative="1" as="geometry">
            <mxPoint x="8" y="-1" as="offset" />
          </mxGeometry>
        </mxCell>
        <mxCell id="IR8KiJRRjraTLiIBn78g-13" value="Пользователь СПС" style="shape=umlActor;verticalLabelPosition=bottom;verticalAlign=top;html=1;outlineConnect=0;" parent="IR8KiJRRjraTLiIBn78g-1" vertex="1">
          <mxGeometry x="-1310" y="420" width="30" height="60" as="geometry" />
        </mxCell>
        <mxCell id="IR8KiJRRjraTLiIBn78g-14" style="edgeStyle=orthogonalEdgeStyle;rounded=0;orthogonalLoop=1;jettySize=auto;html=1;exitX=1;exitY=0.5;exitDx=0;exitDy=0;entryX=0;entryY=0.5;entryDx=0;entryDy=0;" parent="IR8KiJRRjraTLiIBn78g-1" source="IR8KiJRRjraTLiIBn78g-7" target="IR8KiJRRjraTLiIBn78g-16" edge="1">
          <mxGeometry relative="1" as="geometry">
            <mxPoint x="-520" y="444.5" as="sourcePoint" />
            <mxPoint x="-420" y="444.5" as="targetPoint" />
          </mxGeometry>
        </mxCell>
        <mxCell id="IR8KiJRRjraTLiIBn78g-15" value="HTTP 200 OK" style="edgeLabel;html=1;align=center;verticalAlign=middle;resizable=0;points=[];" parent="IR8KiJRRjraTLiIBn78g-14" vertex="1" connectable="0">
          <mxGeometry x="-0.1806" y="-4" relative="1" as="geometry">
            <mxPoint x="1" as="offset" />
          </mxGeometry>
        </mxCell>
        <mxCell id="IR8KiJRRjraTLiIBn78g-16" value="Ресурс " style="shape=image;verticalLabelPosition=bottom;labelBackgroundColor=default;verticalAlign=top;aspect=fixed;imageAspect=0;image=data:image/jpeg,/9j/4AAQSkZJRgABAQAAAQABAAD/2wCEAAkGBxMQEhUQEBMWExUXFxISFRcXERcVFxYXFRcWFhcVFxUZHiggGRslGxcVITEiJykrLi4uFx8zODUtOSgtLisBCgoKDg0OGxAQGy8lICYvNSs1LS4tLS8vLS0tLS0tLS0tLS0tLS0tLS0tLS0tLS0tLS0rLTUtLS0tLy0tLS0tLf/AABEIAOEA4QMBIgACEQEDEQH/xAAcAAEAAgMBAQEAAAAAAAAAAAAABgcDBAUCAQj/xABGEAABAwIDBQUEBgYHCQAAAAABAAIDBBEFEiEGMUFRYQcTcYGRIjKhsQgUQlJiwSNDcpKisiQzY4Kj4fAVFkRzk5TC0fH/xAAZAQEAAwEBAAAAAAAAAAAAAAAAAgMEBQH/xAAnEQEAAgICAgEEAgMBAAAAAAAAAQIDEQQxEiFBExQiQlGxMjNhBf/aAAwDAQACEQMRAD8AvFERAREQEREBERAREQEREBERAREQEREBERAREQEREBERAREQEREBERAREQEREBFhpJXPY1z2GNxGrC4OLel26HyWZAREQEREBERAREQEREBERAREQEREBERAREQEREBERAREQEREBERAREQEREBERAREQEREBERAREQEREBERAREQEREBERAREQEREBERAREQEXA2q2tpsOZeZ13kXZE2xkd5fZH4jYKmNqNuKzECW5jDCf1UbiAR/aP0L/DQdFXfLWq3HhtfpeVbtHSQXEtTCwjgZm5v3b3+Ci+Jdq9DHpEJag7vYjyN83SZdPAFUhHS20Fh4BbLKNZ55M/DVXiV+ZWhH2xsv7VG4DmJ2E+haPmupB2s0ThdzJ2HkY2G/gWvPxsqfbSgb7L6IhwsofcXT+0ovOj7RMOk/4gMPJ8b2fEtt8V3sOxSCoGaCaOUcSyRr7eNjovzcWBSXZLCAWOncCCSBG4Ese0NvdzXtIIuTwP2V7PM8Y3aEJ4cT1K+EUAoNpqimH6f+kxC5LrtZM0DXfo2S3XKeZKluCY5T1rO8ppBIBbMNzmk8HNOrT4rRiz0yx+MsuTDfH26SIiuVCIiAiIgIiICIiAiIgIiICIiAiIgKudp9t5JXupsOIAaSySosDdw0LIAdCQd7zcC1hfeOpt5jJymihcWveLyuabObGfsh32XO57wL2sSCIfTUbWNyNGUAZRbSwtYAcli5PI8fxr3/TdxON5/nbr+3OqtnWTAl7nGQ3cZCS5znWsC4uuXDdv5KGQnRWFhVD3DMmdz9Sbu68FFZ9mqhryI2h7LmxzgadQSNVix373Lfev8Q5sb7L0+byXapdlJXH9K9rByb7TvyA+K7tJs7Tx2OTORxeS6/W3u/BStkrCMVlHMGwJ9SQ992Rb78Xfsj8/mpRVYBA+PumsDLe64D2geZO93W66QXsLPbJMynrSLUWyJzXnkBaD7rAbu8SdylTWADKBYAWAGlhuFl9C+qNrTPZpE8Za2mp3U7JC9z3+1dwLmttc3A3XsPHMVHMNxCajmbPA7K9vo4cWvH2mnl8jYrc2ijLauQcyHeRaD87jyWB0OZtlop+MbhGYifUr42S2kjxCASx+y4WbIy9yx3LqDvB4+NwO4vzvsjjrsNqmy692bMmHNhOpA+83ePAjiv0NG8OAINwQCCOIO4rqYcnnX325WfF9O3/HpERXKBERAREQEREBERAREQEREBR7bTaH6jCC2xmkPdwtOozWuXuH3WjU89BxUhVAbcbTGprHzxnMxt6envqMjD+kkHPM+/iGt5KrNea19drsGOL399NqpxRtO0ySudJI8k6n23ni4nh4+AHJcxm1z76wtt+2b+tlwZJHSuzSOzOsBfkBuAA0AXx4AXOjFH7dupOSfj1Cb4HjraklmUscBmte4IvbQ6cx6rsBQnZoiG8xBe+QOjhjbbM/KQXHXRrQQBmOg8xeR4UypzPfUvYAQAyKMXDNTqXkXcbW6Kq9Ne1tL79OsvoKx5rdVrYVUySszSxmN1yLHkOOv+tFTpKWTFZpGROdC3M8WsLX8TbjYcFEhSVs3tkS3/E7Jv5NJFlNwV6BUq318IzDTwKlkhiDZX53XvvJyjT2QT/rVdMFYgV6BVczudvNIvtvRe5UNG72H+F7tPxI9FwaeQEKXYlixikMc9O407gB3zRnaLj2hKwatH4v/qjON4T9WLZInB8T/cN72uLgX4i24rRTcRqUYtG/TUrYri6t/sr2ibVUop3aS07WxkfejAsxw8hY+HUKoy+4WfZbGTQVkdRezL5JeRicQH38NHeLAtGC/jZTycfnX0/RiL4Cvq6bkiIiAiIgIiICIiAiIgIiIOBt5iJpsPqZmGzxE5rDyfJaNluuZwVCYhhobTsc39XYHwOl/UD1Vx9r0lqFrCbZ54G255SZbf4d/JV9h263QfmufzMkxaNOpwMUWpZCopNwbqToANSfBSLDtmHu1nOUaHK03cehO4fFSSOBgOYMaDzDQD6rYCy2zTPTXXBEdtGnpoqVr5nFrBbVx0DI2+6wdBv6ucTxXM/38ob2713j3T7fK653aXVBjKdjwXRulzSNBsXNZa7b/wB4/BRPbDHaaqMQpacQsjBHuta517eyQw2sLc7+0dy0YePGSvlZkz8mcVvGq3aGtjnYJIXh7TuIN/I8j0WyCqp2GxgnELRsbFHMHZo2XyNysJBF+rf4ipHim0T5HFsJyMGgI953W/AcrKnLgmt/GF2LkRenlKXVFbHH/WSNb0LgD6L3T1sb/ckY7weCfRVoYibk68Tc715vlILTYggg33Hmo/RjXaX1FqhegVhjJsL77C9t1+NlCpseiq6uanmqjSU8OnsvEb53tNnfpCNGix9kan5QxYZyTqHmXLGONynqhO1tKYXMbFpE8vkLPsskFruZyDsxu3dfUbyoFHi4hqJnRVNRkb3hp3XzF7gRkEjXG2Qi99L7tFb2EVDK2limkY052hxBFwHbja/UFW5MNsHve4lVizVyzrWphBmAuIa0FzjoABcnwClGFbOZWF84BeQQG7wwEa+LiPRSCnpI4/6tjW332aBfxKyOGiovkmY9NER7TPYvETUUcT3G72gwycPbhJjcbdS2/mu4oN2YyWNbAT7s7JR0EsTPzY4+ZU5XbxW8qRZxMtfG8wIiKxAREQEREBERAREQEREFfdtBtS0xO4VTSf8At6lVnguKOkl7trRlsSSTrYcbeJGnVWb21PZ9QYxxsX1ELGeNnkn90O9VWmA0QicXXuSMu61hv/ILnczXl7706vA8prqOtpQCsjVzaKne173ukLmutladzfiui0rE6UOLths99eiDWuDZGEuYTuNxYtNtwOmvRQOPs8rSbERtHMyafAE/BWvlNwb7uCyrRTkWx11DNl4mPJbylFdndj2UbHve/PK5jml9rBjSDfKN/n0UbiOis8i65L9mqY39gi/J7hbw1UIzTMzNkZwxERFUGlqraWJ8Bp6ldjBMDfOWvkBZHv1Fi7oBy6qUUeCwRG7Ixfm72j5X3LdnmawFzjYC3x0AHMk2Fktl36rBXHr3MswVTbbbHzxzPngY6SJ7i/2RmcwuNyC0a2uTYq1YnkgEgtPEG1x000WRRw5ZxW3D3LhrlrqX56ioJXuyNje527KGOJ9LK9dk6B1NSQwye81vtDfYuJcR5Xst+RzvsgHnc/66LI0/n/krc+ecsRGleDiximZ3tkutLDsObCXlrnOzuzHMb237vVbd1Gdp8cLbwxGx3PcN4/C3rzKyxWZ9Qun0mvZrKHVVeGkEZaM3BuL2mBHiLKwVTnYbW2qKqAn3o4pAP+W4tcf8RquNdvBGscQ43I/2SIiK1SIiICIiAiIgIiICIiCnvpBV1vqcA35pZz0LcrGfzP8ARRTDp9x3bjY6WPEEcCu/2ktNRtDRQXu0fUmkcLGd73+Zb8guRtvTmgrqhjho55qYfxNmJcQPCTvG+ACxcrHNo3Hw6PCyxSdS7MD7rZaVW0mJTv1Mjm8g1xaB6fmtnA6uUTsDXuOZwDgXEgjje/S6x/RmI3tv+5rM6iFhgr2CsAK5mL48Kd7WZM5IzH2rWF7ctToVVETb1C68xEbl3AV9BWrR1bJW543Bw+R5EcD0WwCoodtOYVItkMT9BcuDmm/HQEgj0t1WOmoJC8S1Dw8t1YxvuMO7MNBc23X3XOpXSugKl5I+D6vQK0cTxKOnZnkPQAb3HoovVbRTS+4e6b01Pm4/5L2tJt08m8VTbvBfLcX5X19F6uq1ikd3jXNJc/M0g3JJddWOXJeviVt5NfFq3uIXycQLD9o6D4lV9M85eLnOPiST8ypLtrU5Y2M4Odcn9kaD4/Be+y/BDWVoleLxU9pTpoX/AKtvqC7+51V2CnkpzZIrvb3sJSvw/HW0shu4tdE4gae3A2ew5gFoF+ivVU7iLb7UxAb7sJ8qVx+SuJdPHGomHJyTuYkREVisREQEREBERAREQEREFL7ejutpKGR2jX/U9eF+9kjt/L6qY9quyJxGmzwtvUQZnxc3tPvxX62BHVo5lcPt4wZ76eGuhvnpnkOI3tZIW2f/AHZGs/eJU/2YxlldSw1Ue6RgcR91w0ew9WuDh5KOu4T31MPy/BJwO8aWIsR0I4Fd7ZCIGR8h4ANHi7f8B8VYnaZ2bfWHOraBoExu6WLQCXm9nAScxud0O+rNn6t0UxieC0klrmuBa5rm8CDqDvFliz0mKy38bJW142nrXKNbXxWfHLwILD0sbj5n0Xchnus0jA9pa4XaQQRzBWClvGdupkp5V0gtNVPiOeJ5bzAOh8RuKsGgqO8jZIdMzWu9RdRt+yjbjLK4DiCATboRZSWFoaA0aAAAdANArMtqzrSjFS1e2wl1jDlqVeJtikjicHEyGwsNBw19VTELZ9PGM4Q2pDczi0tvYjXfa9wfBa1HszDHq7NIfxHT0H53XYzLyXKXlOtPPCJnbFT0MUWscbWnmGi/729bBesTnrUqag6NY0vkeckbALue87gB8TwABJIGq89zOktRWNssodM9kEbc8kjsrBbdxLzyAFyTwsrU2fwSKhhEMIsLlzjYAucd7j6AdAAohhcLcEjbUVsc08sjT308MQkjp2ix7sgEODd13BpuW62AaBz9re0iKrh+pYSXzVFQe5B7p8eRrveILwPatfUaDVxOmvU4+GMUbntxuTmnNOq9NLs+/p+OVmIDWOPOGO4HNaGIg9Yo3nzVwKObBbLtwykbACHSE95M4bnPIAsPwgANHQX4lSNaaxqGW87kREUkRERAREQEREBERAREQYqumZKx0UjQ9j2ljmkXDmuFiCORCpCvxKp2VqX00IE9JP8ApoWyEjKfdcA8faHsg6G4yHQkq9Fwds9losTpzTy+yfeikAu6N43OHMcCOIPmvJh7E/yjPZrtrNikj++mp2FrSfqzIZBIBcASd691nAbjlB94Xtx6u2WwUNe4VDD3NS3dIBcPsLBsrftdDvHUaKMdl3ZzU4dVyVNU6OzWPhjDHF2fOWkvNwMos0ab9Ty1tZea3GrJeXjbdVBVtPLRy9xVM7t/DW7JB96J/wBodN44gLYiqBwPkrqxPDYamMxVEbJWHe17Q4X4HXceqgWL9lbSc1DUvh/s5QZ4/BriQ9vmXLDk4XzR08P/AKPrWSEcZJdezMBvIHiQFw9tsBxDDYWvnlhMb5BE0xOfnJLXO1DmCzbNO48lFsGw2esc5tPC+dzQHODQCQCbAm/VUxxbfK63Np+qyDKBqSB5rXfiUI3yx/8AUb/7UQk2XrmXvQ1GnKne74tBv5Lm10ckBDZoZIiRcCSJ8ZIHEB4Fwn2yP3cT0m9TtJTs3Pznkxpd8d3xXPftfGP1b7eLfkuPgGz1XiF/qkOdodkc/M1rWmwPtFx5EHS+9WXs32PRtGfEJDM4j+ric5jGnrILPf8Aw+BVleLtVfmaRqixA1bmxUjHTSu+wBYRj70r9zGjnx4XVq7J7KMox3shEtQ4WfJawaDYmOIfZZceLrAngB1sIweCkj7qmiZEzfZrQLnm473Hqblby14uPXH7jtjz8q+X1PSn+38z2pQ3P3DjI1wbfKZbtyBwG82zZQeRst3sf2EfS/0+rYWzOBbDG73o2O3vcOD3DS28C99SQLSsvqt8fe1Hl60IiKSIiIgIiICIiAiIgIiICIiAiIgIiICIiCq/pB3+qU2mn1jU9e6ksPn6LW+j3Sjuqua2pkiiv0Ywut/iLr9u8GbDQ7T2J4X9dQ6PT99aP0fJQaSpZxFRmPOzoowP5Sofss/RaiqL6QdEO7pKjiHyQ+T25/nH8Vbqrbt6y/7Ojvv+sxZepyS3/hzL2/SNO3O+j4/9BVt5Sxu9WW/8VbSq36P0FqOof96oy+TYoz83FWklei/+QiIpIiIiAiIgIiICIiAiIgIiICIiAiIgIiICIiDXxGtZTxSTynKyNj5HnfZrAXE28Avz1tZ2q1tY4tp3Gkh1Aaw2lcOb5d4PRtrdd6/QmJULKiKSCUXZIx8Txe12vBabHhoVQe0PY/XQOJpctXHrazmxyAfia8gHxafIKF9/CdNfKvqid8js8j3SO+89xe71cSVcn0eGnLWHW2anA5XAkJ87FvwUQwjsnxOcjPE2nbpd0sjSbcwxhJJ6GyvjZPZ2LDaZlLDcgXc5x9573e893ytwAA4LytZ3uUr2jWnZVT/SEefq9K3gZnk+IjcB/MVbCinaRsp/tSkMTCBMw95CToMwFi13RwuOhseCnbpXXtQ2zW3Vdh7O6ppG93cu7t8TXNzHeb2Dv4lY+y3bQx7hHiEQivYd9GSYweb4zdzR1Bd5KnsVw2akeY6mJ8LgbWe0tv8Asu3O8QSFlwPBKiuf3dJE6Z2l8o9lt+L3n2WjxKqibQvmtZh+t43hwDmkEEAgg3BB1BB4helytlMLdSUdPTPdmdFFHG4jcS0a26cB0XVVzOIiICIiAiIgIiICIiAiIgIiICIiAiIgIiICIiAiIgIiIPEkQcLOAcORAI9CvrIw0WaAANwAsB5L0iAiIgIiICIiAiIgIiICIiAiIgIiICIiAiIgIiICIiAiIgIiICIiAiIgIiICIiAiIgIiICIiD//Z;" parent="IR8KiJRRjraTLiIBn78g-1" vertex="1">
          <mxGeometry x="-344" y="407" width="80" height="80" as="geometry" />
        </mxCell>
        <mxCell id="IR8KiJRRjraTLiIBn78g-17" style="edgeStyle=orthogonalEdgeStyle;rounded=0;orthogonalLoop=1;jettySize=auto;html=1;exitX=0;exitY=0;exitDx=0;exitDy=27.5;exitPerimeter=0;entryX=0.5;entryY=0;entryDx=0;entryDy=0;" parent="IR8KiJRRjraTLiIBn78g-1" source="IR8KiJRRjraTLiIBn78g-18" target="IR8KiJRRjraTLiIBn78g-10" edge="1">
          <mxGeometry relative="1" as="geometry" />
        </mxCell>
        <mxCell id="IR8KiJRRjraTLiIBn78g-18" value="Ролевая модель:&lt;br&gt;Матрица доступа ABAC" style="shape=cylinder3;whiteSpace=wrap;html=1;boundedLbl=1;backgroundOutline=1;size=15;" parent="IR8KiJRRjraTLiIBn78g-1" vertex="1">
          <mxGeometry x="-430" y="60" width="130" height="110" as="geometry" />
        </mxCell>
        <mxCell id="IR8KiJRRjraTLiIBn78g-19" style="edgeStyle=orthogonalEdgeStyle;rounded=0;orthogonalLoop=1;jettySize=auto;html=1;dashed=1;dashPattern=8 8;" parent="IR8KiJRRjraTLiIBn78g-1" source="IR8KiJRRjraTLiIBn78g-20" target="IR8KiJRRjraTLiIBn78g-13" edge="1">
          <mxGeometry relative="1" as="geometry" />
        </mxCell>
        <mxCell id="IR8KiJRRjraTLiIBn78g-20" value="Атрибуты пользователя (субьекта)" style="swimlane;fontStyle=0;childLayout=stackLayout;horizontal=1;startSize=30;horizontalStack=0;resizeParent=1;resizeParentMax=0;resizeLast=0;collapsible=1;marginBottom=0;whiteSpace=wrap;html=1;" parent="IR8KiJRRjraTLiIBn78g-1" vertex="1">
          <mxGeometry x="-1380" y="580" width="170" height="120" as="geometry" />
        </mxCell>
        <mxCell id="IR8KiJRRjraTLiIBn78g-21" value="Должность" style="text;strokeColor=none;fillColor=none;align=left;verticalAlign=middle;spacingLeft=4;spacingRight=4;overflow=hidden;points=[[0,0.5],[1,0.5]];portConstraint=eastwest;rotatable=0;whiteSpace=wrap;html=1;" parent="IR8KiJRRjraTLiIBn78g-20" vertex="1">
          <mxGeometry y="30" width="170" height="30" as="geometry" />
        </mxCell>
        <mxCell id="IR8KiJRRjraTLiIBn78g-22" value="Отдел" style="text;strokeColor=none;fillColor=none;align=left;verticalAlign=middle;spacingLeft=4;spacingRight=4;overflow=hidden;points=[[0,0.5],[1,0.5]];portConstraint=eastwest;rotatable=0;whiteSpace=wrap;html=1;" parent="IR8KiJRRjraTLiIBn78g-20" vertex="1">
          <mxGeometry y="60" width="170" height="30" as="geometry" />
        </mxCell>
        <mxCell id="IR8KiJRRjraTLiIBn78g-23" value="Роль в системе" style="text;strokeColor=none;fillColor=none;align=left;verticalAlign=middle;spacingLeft=4;spacingRight=4;overflow=hidden;points=[[0,0.5],[1,0.5]];portConstraint=eastwest;rotatable=0;whiteSpace=wrap;html=1;" parent="IR8KiJRRjraTLiIBn78g-20" vertex="1">
          <mxGeometry y="90" width="170" height="30" as="geometry" />
        </mxCell>
        <mxCell id="iCqgBLTXuR9NVTWVnusn-9" style="edgeStyle=orthogonalEdgeStyle;rounded=0;orthogonalLoop=1;jettySize=auto;html=1;entryX=1;entryY=0.75;entryDx=0;entryDy=0;fontFamily=Helvetica;fontSize=11;fontColor=default;labelBackgroundColor=default;resizable=0;exitX=1;exitY=0.5;exitDx=0;exitDy=0;dashed=1;dashPattern=8 8;" edge="1" parent="IR8KiJRRjraTLiIBn78g-1" source="IR8KiJRRjraTLiIBn78g-25" target="IR8KiJRRjraTLiIBn78g-16">
          <mxGeometry relative="1" as="geometry">
            <Array as="points">
              <mxPoint x="-170" y="565" />
              <mxPoint x="-170" y="467" />
            </Array>
          </mxGeometry>
        </mxCell>
        <mxCell id="IR8KiJRRjraTLiIBn78g-24" value="Атрибуты ресурса (объекта)" style="swimlane;fontStyle=0;childLayout=stackLayout;horizontal=1;startSize=30;horizontalStack=0;resizeParent=1;resizeParentMax=0;resizeLast=0;collapsible=1;marginBottom=0;whiteSpace=wrap;html=1;" parent="IR8KiJRRjraTLiIBn78g-1" vertex="1">
          <mxGeometry x="-380" y="520" width="169" height="120" as="geometry" />
        </mxCell>
        <mxCell id="IR8KiJRRjraTLiIBn78g-25" value="Тип" style="text;strokeColor=none;fillColor=none;align=left;verticalAlign=middle;spacingLeft=4;spacingRight=4;overflow=hidden;points=[[0,0.5],[1,0.5]];portConstraint=eastwest;rotatable=0;whiteSpace=wrap;html=1;" parent="IR8KiJRRjraTLiIBn78g-24" vertex="1">
          <mxGeometry y="30" width="169" height="30" as="geometry" />
        </mxCell>
        <mxCell id="IR8KiJRRjraTLiIBn78g-26" value="Создатель" style="text;strokeColor=none;fillColor=none;align=left;verticalAlign=middle;spacingLeft=4;spacingRight=4;overflow=hidden;points=[[0,0.5],[1,0.5]];portConstraint=eastwest;rotatable=0;whiteSpace=wrap;html=1;" parent="IR8KiJRRjraTLiIBn78g-24" vertex="1">
          <mxGeometry y="60" width="169" height="30" as="geometry" />
        </mxCell>
        <mxCell id="wfgOvqXtOrklbdNPHsjH-0" value="Делегирование до" style="text;strokeColor=none;fillColor=none;align=left;verticalAlign=middle;spacingLeft=4;spacingRight=4;overflow=hidden;points=[[0,0.5],[1,0.5]];portConstraint=eastwest;rotatable=0;whiteSpace=wrap;html=1;" parent="IR8KiJRRjraTLiIBn78g-24" vertex="1">
          <mxGeometry y="90" width="169" height="30" as="geometry" />
        </mxCell>
        <mxCell id="IR8KiJRRjraTLiIBn78g-27" value="ATOM ID" style="text;html=1;align=center;verticalAlign=middle;whiteSpace=wrap;rounded=0;" parent="IR8KiJRRjraTLiIBn78g-1" vertex="1">
          <mxGeometry x="-1360" y="187" width="60" height="30" as="geometry" />
        </mxCell>
        <mxCell id="IR8KiJRRjraTLiIBn78g-28" value="ИС" style="text;html=1;align=center;verticalAlign=middle;whiteSpace=wrap;rounded=0;" parent="IR8KiJRRjraTLiIBn78g-1" vertex="1">
          <mxGeometry x="-1360" y="237" width="60" height="30" as="geometry" />
        </mxCell>
        <mxCell id="IR8KiJRRjraTLiIBn78g-29" style="edgeStyle=orthogonalEdgeStyle;rounded=0;orthogonalLoop=1;jettySize=auto;html=1;exitX=0.5;exitY=0;exitDx=0;exitDy=0;exitPerimeter=0;entryX=1;entryY=0.5;entryDx=0;entryDy=0;" parent="IR8KiJRRjraTLiIBn78g-1" source="IR8KiJRRjraTLiIBn78g-31" target="IR8KiJRRjraTLiIBn78g-10" edge="1">
          <mxGeometry relative="1" as="geometry" />
        </mxCell>
        <mxCell id="IR8KiJRRjraTLiIBn78g-30" value="{attr: 1, attr: 2}" style="edgeLabel;html=1;align=center;verticalAlign=middle;resizable=0;points=[];" parent="IR8KiJRRjraTLiIBn78g-29" vertex="1" connectable="0">
          <mxGeometry x="0.2212" y="-4" relative="1" as="geometry">
            <mxPoint x="-27" y="4" as="offset" />
          </mxGeometry>
        </mxCell>
        <mxCell id="IR8KiJRRjraTLiIBn78g-31" value="БД&lt;div&gt;информация c динамическими&amp;nbsp; атрибутами объектов&amp;nbsp;&lt;/div&gt;" style="shape=cylinder3;whiteSpace=wrap;html=1;boundedLbl=1;backgroundOutline=1;size=15;" parent="IR8KiJRRjraTLiIBn78g-1" vertex="1">
          <mxGeometry x="-570" y="285" width="130" height="110" as="geometry" />
        </mxCell>
        <mxCell id="IR8KiJRRjraTLiIBn78g-32" value="Запрос решения APA" style="rounded=0;whiteSpace=wrap;html=1;" parent="IR8KiJRRjraTLiIBn78g-1" vertex="1">
          <mxGeometry x="-1120" y="410" width="140" height="80" as="geometry" />
        </mxCell>
        <mxCell id="IR8KiJRRjraTLiIBn78g-33" value="&quot;decision&quot;:&quot;allow&quot;" style="edgeStyle=orthogonalEdgeStyle;rounded=0;orthogonalLoop=1;jettySize=auto;html=1;entryX=0;entryY=0.5;entryDx=0;entryDy=0;exitX=1;exitY=0.5;exitDx=0;exitDy=0;" parent="IR8KiJRRjraTLiIBn78g-1" source="IR8KiJRRjraTLiIBn78g-32" target="IR8KiJRRjraTLiIBn78g-7" edge="1">
          <mxGeometry relative="1" as="geometry">
            <mxPoint x="-1560" y="447" as="sourcePoint" />
            <mxPoint x="-1050" y="447" as="targetPoint" />
          </mxGeometry>
        </mxCell>
        <mxCell id="Dxi2YEalGo-rRZksbQTP-0" value="ABAC с использованием динамического словаря" style="rounded=0;whiteSpace=wrap;html=1;fillColor=#e1d5e7;strokeColor=#9673a6;" parent="IR8KiJRRjraTLiIBn78g-1" vertex="1">
          <mxGeometry x="-1355" y="50" width="120" height="60" as="geometry" />
        </mxCell>
        <mxCell id="oyr__1JjvTBXwkt0DnMG-1" style="edgeStyle=orthogonalEdgeStyle;rounded=0;orthogonalLoop=1;jettySize=auto;html=1;exitX=0.5;exitY=0;exitDx=0;exitDy=0;exitPerimeter=0;entryX=0.25;entryY=0;entryDx=0;entryDy=0;" parent="IR8KiJRRjraTLiIBn78g-1" source="oyr__1JjvTBXwkt0DnMG-0" target="IR8KiJRRjraTLiIBn78g-10" edge="1">
          <mxGeometry relative="1" as="geometry" />
        </mxCell>
        <mxCell id="oyr__1JjvTBXwkt0DnMG-0" value="Политика" style="shape=cylinder3;whiteSpace=wrap;html=1;boundedLbl=1;backgroundOutline=1;size=15;" parent="IR8KiJRRjraTLiIBn78g-1" vertex="1">
          <mxGeometry x="-270" y="60" width="130" height="110" as="geometry" />
        </mxCell>
        <mxCell id="GRrQEi-pEktRjjQob2Sm-1" style="edgeStyle=orthogonalEdgeStyle;rounded=0;orthogonalLoop=1;jettySize=auto;html=1;exitX=1;exitY=0.5;exitDx=0;exitDy=0;entryX=1;entryY=0.5;entryDx=0;entryDy=0;entryPerimeter=0;dashed=1;dashPattern=8 8;" parent="IR8KiJRRjraTLiIBn78g-1" source="FAeCKa0EwktJisrqgXl9-0" target="oyr__1JjvTBXwkt0DnMG-0" edge="1">
          <mxGeometry relative="1" as="geometry">
            <mxPoint x="-210" y="680" as="sourcePoint" />
            <Array as="points">
              <mxPoint x="-100" y="720" />
              <mxPoint x="-100" y="115" />
            </Array>
          </mxGeometry>
        </mxCell>
        <mxCell id="FAeCKa0EwktJisrqgXl9-0" value="&lt;p style=&quot;margin-bottom:0cm;margin-bottom:.0001pt;line-height:&amp;lt;br/&amp;gt;normal&quot; class=&quot;MsoNormal&quot;&gt;&lt;span style=&quot;font-size:9.0pt;mso-bidi-font-size:11.0pt&quot;&gt;&lt;b&gt;Бизнес правило:&lt;/b&gt; Пользователь с [атрибут-роль]&lt;br&gt;[атрибут X] может [получить доступ] [прочитать] [изменить] [удалить] свой блог если у&lt;br&gt;пользователя имеется&amp;nbsp;&lt;/span&gt;[атрибут-роль] и&amp;nbsp;&lt;span style=&quot;background-color: transparent; color: light-dark(rgb(0, 0, 0), rgb(255, 255, 255));&quot;&gt;[атрибут-делегирование]&amp;nbsp;&lt;/span&gt;&lt;span style=&quot;background-color: transparent; color: light-dark(rgb(0, 0, 0), rgb(255, 255, 255)); font-size: 9pt;&quot;&gt;у объекта есть [атрибут X] и&amp;nbsp;&lt;/span&gt;&lt;span style=&quot;background-color: transparent; color: light-dark(rgb(0, 0, 0), rgb(255, 255, 255));&quot;&gt;[атрибут Y]&lt;/span&gt;&lt;/p&gt;" style="rounded=0;whiteSpace=wrap;html=1;fillColor=#d5e8d4;strokeColor=#82b366;" parent="IR8KiJRRjraTLiIBn78g-1" vertex="1">
          <mxGeometry x="-770" y="690" width="611.25" height="60" as="geometry" />
        </mxCell>
        <mxCell id="iCqgBLTXuR9NVTWVnusn-1" value="Делегирование" style="swimlane;fontStyle=0;childLayout=stackLayout;horizontal=1;startSize=30;horizontalStack=0;resizeParent=1;resizeParentMax=0;resizeLast=0;collapsible=1;marginBottom=0;whiteSpace=wrap;html=1;" vertex="1" parent="IR8KiJRRjraTLiIBn78g-1">
          <mxGeometry x="-380" y="265" width="169" height="150" as="geometry" />
        </mxCell>
        <mxCell id="iCqgBLTXuR9NVTWVnusn-2" value="Кто делегировал" style="text;strokeColor=none;fillColor=none;align=left;verticalAlign=middle;spacingLeft=4;spacingRight=4;overflow=hidden;points=[[0,0.5],[1,0.5]];portConstraint=eastwest;rotatable=0;whiteSpace=wrap;html=1;" vertex="1" parent="iCqgBLTXuR9NVTWVnusn-1">
          <mxGeometry y="30" width="169" height="30" as="geometry" />
        </mxCell>
        <mxCell id="iCqgBLTXuR9NVTWVnusn-3" value="Кому делегировано" style="text;strokeColor=none;fillColor=none;align=left;verticalAlign=middle;spacingLeft=4;spacingRight=4;overflow=hidden;points=[[0,0.5],[1,0.5]];portConstraint=eastwest;rotatable=0;whiteSpace=wrap;html=1;" vertex="1" parent="iCqgBLTXuR9NVTWVnusn-1">
          <mxGeometry y="60" width="169" height="30" as="geometry" />
        </mxCell>
        <mxCell id="iCqgBLTXuR9NVTWVnusn-4" value="Что делегировано" style="text;strokeColor=none;fillColor=none;align=left;verticalAlign=middle;spacingLeft=4;spacingRight=4;overflow=hidden;points=[[0,0.5],[1,0.5]];portConstraint=eastwest;rotatable=0;whiteSpace=wrap;html=1;" vertex="1" parent="iCqgBLTXuR9NVTWVnusn-1">
          <mxGeometry y="90" width="169" height="30" as="geometry" />
        </mxCell>
        <mxCell id="iCqgBLTXuR9NVTWVnusn-6" value="Срок делегирования" style="text;strokeColor=none;fillColor=none;align=left;verticalAlign=middle;spacingLeft=4;spacingRight=4;overflow=hidden;points=[[0,0.5],[1,0.5]];portConstraint=eastwest;rotatable=0;whiteSpace=wrap;html=1;" vertex="1" parent="iCqgBLTXuR9NVTWVnusn-1">
          <mxGeometry y="120" width="169" height="30" as="geometry" />
        </mxCell>
        <mxCell id="iCqgBLTXuR9NVTWVnusn-7" style="edgeStyle=orthogonalEdgeStyle;rounded=0;orthogonalLoop=1;jettySize=auto;html=1;exitX=0;exitY=0.5;exitDx=0;exitDy=0;entryX=1;entryY=0.5;entryDx=0;entryDy=0;entryPerimeter=0;fontFamily=Helvetica;fontSize=11;fontColor=default;labelBackgroundColor=default;resizable=0;" edge="1" parent="IR8KiJRRjraTLiIBn78g-1" source="iCqgBLTXuR9NVTWVnusn-3" target="IR8KiJRRjraTLiIBn78g-31">
          <mxGeometry relative="1" as="geometry" />
        </mxCell>
        <mxCell id="iCqgBLTXuR9NVTWVnusn-8" style="edgeStyle=orthogonalEdgeStyle;rounded=0;orthogonalLoop=1;jettySize=auto;html=1;exitX=1;exitY=0.5;exitDx=0;exitDy=0;entryX=1;entryY=0.5;entryDx=0;entryDy=0;fontFamily=Helvetica;fontSize=11;fontColor=default;labelBackgroundColor=default;resizable=0;dashed=1;dashPattern=8 8;" edge="1" parent="IR8KiJRRjraTLiIBn78g-1" source="iCqgBLTXuR9NVTWVnusn-3" target="IR8KiJRRjraTLiIBn78g-16">
          <mxGeometry relative="1" as="geometry">
            <Array as="points">
              <mxPoint x="-170" y="340" />
              <mxPoint x="-170" y="447" />
            </Array>
          </mxGeometry>
        </mxCell>
      </root>
    </mxGraphModel>
  </diagram>
  <diagram name="АРХ.AUTHZ.4" id="FGPbZjUhKleszoSPpX0a">
    <mxGraphModel dx="2927" dy="794" grid="1" gridSize="10" guides="1" tooltips="1" connect="1" arrows="1" fold="1" page="1" pageScale="1" pageWidth="1500" pageHeight="800" math="0" shadow="0">
      <root>
        <mxCell id="WlV3Ntwt_bg5x24Ok3lq-0" />
        <mxCell id="WlV3Ntwt_bg5x24Ok3lq-1" parent="WlV3Ntwt_bg5x24Ok3lq-0" />
        <mxCell id="WlV3Ntwt_bg5x24Ok3lq-2" value="модуль интеграции ИС&lt;br&gt;&amp;nbsp;с ATOM ID&lt;br&gt;&lt;br&gt;&lt;br&gt;&lt;br&gt;&lt;div&gt;&lt;br/&gt;&lt;/div&gt;" style="rounded=0;whiteSpace=wrap;html=1;" vertex="1" parent="WlV3Ntwt_bg5x24Ok3lq-1">
          <mxGeometry x="-1140" y="370" width="540" height="150" as="geometry" />
        </mxCell>
        <mxCell id="WlV3Ntwt_bg5x24Ok3lq-3" style="edgeStyle=orthogonalEdgeStyle;rounded=0;orthogonalLoop=1;jettySize=auto;html=1;entryX=1;entryY=0.5;entryDx=0;entryDy=0;entryPerimeter=0;" edge="1" parent="WlV3Ntwt_bg5x24Ok3lq-1" source="WlV3Ntwt_bg5x24Ok3lq-24" target="WlV3Ntwt_bg5x24Ok3lq-31">
          <mxGeometry relative="1" as="geometry" />
        </mxCell>
        <mxCell id="WlV3Ntwt_bg5x24Ok3lq-4" value="" style="endArrow=none;dashed=1;html=1;rounded=0;fillColor=#f8cecc;strokeColor=#b85450;" edge="1" parent="WlV3Ntwt_bg5x24Ok3lq-1">
          <mxGeometry width="50" height="50" relative="1" as="geometry">
            <mxPoint x="-1250" y="230" as="sourcePoint" />
            <mxPoint x="-70" y="230" as="targetPoint" />
          </mxGeometry>
        </mxCell>
        <mxCell id="WlV3Ntwt_bg5x24Ok3lq-5" style="edgeStyle=orthogonalEdgeStyle;rounded=0;orthogonalLoop=1;jettySize=auto;html=1;entryX=0;entryY=0.25;entryDx=0;entryDy=0;exitX=0.25;exitY=0;exitDx=0;exitDy=0;" edge="1" parent="WlV3Ntwt_bg5x24Ok3lq-1" source="WlV3Ntwt_bg5x24Ok3lq-32" target="WlV3Ntwt_bg5x24Ok3lq-10">
          <mxGeometry relative="1" as="geometry" />
        </mxCell>
        <mxCell id="tB3844xOlmi-RrQvALPj-0" value="&lt;span style=&quot;&quot;&gt;&quot;input&quot;: { &amp;nbsp; &amp;nbsp; &amp;nbsp;&lt;/span&gt;&lt;br style=&quot;&quot;&gt;&lt;span style=&quot;&quot;&gt;&amp;nbsp; &amp;nbsp; &amp;nbsp; &quot;object&quot;: &quot;печенька&quot;,&amp;nbsp;&amp;nbsp;&lt;/span&gt;&lt;br style=&quot;&quot;&gt;&lt;span style=&quot;&quot;&gt;&amp;nbsp; &amp;nbsp; &amp;nbsp; &quot;user_token&quot;: &quot;jwt&quot;&lt;/span&gt;&lt;br style=&quot;&quot;&gt;&lt;span style=&quot;&quot;&gt;&amp;nbsp; &amp;nbsp; }&lt;/span&gt;" style="edgeLabel;html=1;align=left;verticalAlign=middle;resizable=0;points=[];fontFamily=Helvetica;fontSize=11;fontColor=default;labelBackgroundColor=default;fillColor=none;gradientColor=none;" vertex="1" connectable="0" parent="WlV3Ntwt_bg5x24Ok3lq-5">
          <mxGeometry x="0.3489" y="-3" relative="1" as="geometry">
            <mxPoint x="-17" as="offset" />
          </mxGeometry>
        </mxCell>
        <mxCell id="WlV3Ntwt_bg5x24Ok3lq-7" value="Модуль выполнения решения авторизации (&lt;span style=&quot;background-color: initial;&quot;&gt;PEP)&lt;/span&gt;" style="rounded=0;whiteSpace=wrap;html=1;" vertex="1" parent="WlV3Ntwt_bg5x24Ok3lq-1">
          <mxGeometry x="-750" y="405" width="120" height="80" as="geometry" />
        </mxCell>
        <mxCell id="WlV3Ntwt_bg5x24Ok3lq-8" style="edgeStyle=orthogonalEdgeStyle;rounded=0;orthogonalLoop=1;jettySize=auto;html=1;exitX=0.75;exitY=1;exitDx=0;exitDy=0;entryX=0.75;entryY=0;entryDx=0;entryDy=0;" edge="1" parent="WlV3Ntwt_bg5x24Ok3lq-1" source="WlV3Ntwt_bg5x24Ok3lq-10" target="WlV3Ntwt_bg5x24Ok3lq-32">
          <mxGeometry relative="1" as="geometry" />
        </mxCell>
        <mxCell id="WlV3Ntwt_bg5x24Ok3lq-9" value="&quot;decision&quot;:&quot;allow&quot; +&lt;br&gt;&lt;div&gt;Ограничения доступа (предписания):&lt;br&gt;Печеньку можно, если пользователь Х ее &quot;владелец&quot;&lt;/div&gt;" style="edgeLabel;html=1;align=center;verticalAlign=middle;resizable=0;points=[];labelBackgroundColor=default;" vertex="1" connectable="0" parent="WlV3Ntwt_bg5x24Ok3lq-8">
          <mxGeometry x="0.1563" relative="1" as="geometry">
            <mxPoint x="45" y="-5" as="offset" />
          </mxGeometry>
        </mxCell>
        <mxCell id="WlV3Ntwt_bg5x24Ok3lq-10" value="ATOM ID APA" style="rounded=0;whiteSpace=wrap;html=1;" vertex="1" parent="WlV3Ntwt_bg5x24Ok3lq-1">
          <mxGeometry x="-797.5" y="77" width="120" height="80" as="geometry" />
        </mxCell>
        <mxCell id="WlV3Ntwt_bg5x24Ok3lq-11" style="edgeStyle=orthogonalEdgeStyle;rounded=0;orthogonalLoop=1;jettySize=auto;html=1;entryX=0;entryY=0.5;entryDx=0;entryDy=0;" edge="1" parent="WlV3Ntwt_bg5x24Ok3lq-1" source="WlV3Ntwt_bg5x24Ok3lq-13" target="WlV3Ntwt_bg5x24Ok3lq-32">
          <mxGeometry relative="1" as="geometry" />
        </mxCell>
        <mxCell id="WlV3Ntwt_bg5x24Ok3lq-12" value="Хочу печеньку" style="edgeLabel;html=1;align=center;verticalAlign=middle;resizable=0;points=[];" vertex="1" connectable="0" parent="WlV3Ntwt_bg5x24Ok3lq-11">
          <mxGeometry x="-0.1557" y="-1" relative="1" as="geometry">
            <mxPoint x="8" y="-1" as="offset" />
          </mxGeometry>
        </mxCell>
        <mxCell id="WlV3Ntwt_bg5x24Ok3lq-13" value="Пользователь" style="shape=umlActor;verticalLabelPosition=bottom;verticalAlign=top;html=1;outlineConnect=0;" vertex="1" parent="WlV3Ntwt_bg5x24Ok3lq-1">
          <mxGeometry x="-1310" y="420" width="30" height="60" as="geometry" />
        </mxCell>
        <mxCell id="WlV3Ntwt_bg5x24Ok3lq-14" style="edgeStyle=orthogonalEdgeStyle;rounded=0;orthogonalLoop=1;jettySize=auto;html=1;exitX=1;exitY=0.5;exitDx=0;exitDy=0;entryX=0;entryY=0.5;entryDx=0;entryDy=0;" edge="1" parent="WlV3Ntwt_bg5x24Ok3lq-1" source="WlV3Ntwt_bg5x24Ok3lq-7" target="WlV3Ntwt_bg5x24Ok3lq-16">
          <mxGeometry relative="1" as="geometry">
            <mxPoint x="-520" y="444.5" as="sourcePoint" />
            <mxPoint x="-420" y="444.5" as="targetPoint" />
          </mxGeometry>
        </mxCell>
        <mxCell id="WlV3Ntwt_bg5x24Ok3lq-15" value="HTTP 200 OK" style="edgeLabel;html=1;align=center;verticalAlign=middle;resizable=0;points=[];" vertex="1" connectable="0" parent="WlV3Ntwt_bg5x24Ok3lq-14">
          <mxGeometry x="-0.1806" y="-4" relative="1" as="geometry">
            <mxPoint x="1" as="offset" />
          </mxGeometry>
        </mxCell>
        <mxCell id="WlV3Ntwt_bg5x24Ok3lq-16" value="Ресурс " style="shape=image;verticalLabelPosition=bottom;labelBackgroundColor=default;verticalAlign=top;aspect=fixed;imageAspect=0;image=data:image/jpeg,/9j/4AAQSkZJRgABAQAAAQABAAD/2wCEAAkGBxMQEhUQEBMWExUXFxISFRcXERcVFxYXFRcWFhcVFxUZHiggGRslGxcVITEiJykrLi4uFx8zODUtOSgtLisBCgoKDg0OGxAQGy8lICYvNSs1LS4tLS8vLS0tLS0tLS0tLS0tLS0tLS0tLS0tLS0tLS0rLTUtLS0tLy0tLS0tLf/AABEIAOEA4QMBIgACEQEDEQH/xAAcAAEAAgMBAQEAAAAAAAAAAAAABgcDBAUCAQj/xABGEAABAwIDBQUEBgYHCQAAAAABAAIDBBEFEiEGMUFRYQcTcYGRIjKhsQgUQlJiwSNDcpKisiQzY4Kj4fAVFkRzk5TC0fH/xAAZAQEAAwEBAAAAAAAAAAAAAAAAAgMEBQH/xAAnEQEAAgICAgEEAgMBAAAAAAAAAQIDEQQxEiFBExQiQlGxMjNhBf/aAAwDAQACEQMRAD8AvFERAREQEREBERAREQEREBERAREQEREBERAREQEREBERAREQEREBERAREQEREBFhpJXPY1z2GNxGrC4OLel26HyWZAREQEREBERAREQEREBERAREQEREBERAREQEREBERAREQEREBERAREQEREBERAREQEREBERAREQEREBERAREQEREBERAREQEREBERAREQEXA2q2tpsOZeZ13kXZE2xkd5fZH4jYKmNqNuKzECW5jDCf1UbiAR/aP0L/DQdFXfLWq3HhtfpeVbtHSQXEtTCwjgZm5v3b3+Ci+Jdq9DHpEJag7vYjyN83SZdPAFUhHS20Fh4BbLKNZ55M/DVXiV+ZWhH2xsv7VG4DmJ2E+haPmupB2s0ThdzJ2HkY2G/gWvPxsqfbSgb7L6IhwsofcXT+0ovOj7RMOk/4gMPJ8b2fEtt8V3sOxSCoGaCaOUcSyRr7eNjovzcWBSXZLCAWOncCCSBG4Ese0NvdzXtIIuTwP2V7PM8Y3aEJ4cT1K+EUAoNpqimH6f+kxC5LrtZM0DXfo2S3XKeZKluCY5T1rO8ppBIBbMNzmk8HNOrT4rRiz0yx+MsuTDfH26SIiuVCIiAiIgIiICIiAiIgIiICIiAiIgKudp9t5JXupsOIAaSySosDdw0LIAdCQd7zcC1hfeOpt5jJymihcWveLyuabObGfsh32XO57wL2sSCIfTUbWNyNGUAZRbSwtYAcli5PI8fxr3/TdxON5/nbr+3OqtnWTAl7nGQ3cZCS5znWsC4uuXDdv5KGQnRWFhVD3DMmdz9Sbu68FFZ9mqhryI2h7LmxzgadQSNVix373Lfev8Q5sb7L0+byXapdlJXH9K9rByb7TvyA+K7tJs7Tx2OTORxeS6/W3u/BStkrCMVlHMGwJ9SQ992Rb78Xfsj8/mpRVYBA+PumsDLe64D2geZO93W66QXsLPbJMynrSLUWyJzXnkBaD7rAbu8SdylTWADKBYAWAGlhuFl9C+qNrTPZpE8Za2mp3U7JC9z3+1dwLmttc3A3XsPHMVHMNxCajmbPA7K9vo4cWvH2mnl8jYrc2ijLauQcyHeRaD87jyWB0OZtlop+MbhGYifUr42S2kjxCASx+y4WbIy9yx3LqDvB4+NwO4vzvsjjrsNqmy692bMmHNhOpA+83ePAjiv0NG8OAINwQCCOIO4rqYcnnX325WfF9O3/HpERXKBERAREQEREBERAREQEREBR7bTaH6jCC2xmkPdwtOozWuXuH3WjU89BxUhVAbcbTGprHzxnMxt6envqMjD+kkHPM+/iGt5KrNea19drsGOL399NqpxRtO0ySudJI8k6n23ni4nh4+AHJcxm1z76wtt+2b+tlwZJHSuzSOzOsBfkBuAA0AXx4AXOjFH7dupOSfj1Cb4HjraklmUscBmte4IvbQ6cx6rsBQnZoiG8xBe+QOjhjbbM/KQXHXRrQQBmOg8xeR4UypzPfUvYAQAyKMXDNTqXkXcbW6Kq9Ne1tL79OsvoKx5rdVrYVUySszSxmN1yLHkOOv+tFTpKWTFZpGROdC3M8WsLX8TbjYcFEhSVs3tkS3/E7Jv5NJFlNwV6BUq318IzDTwKlkhiDZX53XvvJyjT2QT/rVdMFYgV6BVczudvNIvtvRe5UNG72H+F7tPxI9FwaeQEKXYlixikMc9O407gB3zRnaLj2hKwatH4v/qjON4T9WLZInB8T/cN72uLgX4i24rRTcRqUYtG/TUrYri6t/sr2ibVUop3aS07WxkfejAsxw8hY+HUKoy+4WfZbGTQVkdRezL5JeRicQH38NHeLAtGC/jZTycfnX0/RiL4Cvq6bkiIiAiIgIiICIiAiIgIiIOBt5iJpsPqZmGzxE5rDyfJaNluuZwVCYhhobTsc39XYHwOl/UD1Vx9r0lqFrCbZ54G255SZbf4d/JV9h263QfmufzMkxaNOpwMUWpZCopNwbqToANSfBSLDtmHu1nOUaHK03cehO4fFSSOBgOYMaDzDQD6rYCy2zTPTXXBEdtGnpoqVr5nFrBbVx0DI2+6wdBv6ucTxXM/38ob2713j3T7fK653aXVBjKdjwXRulzSNBsXNZa7b/wB4/BRPbDHaaqMQpacQsjBHuta517eyQw2sLc7+0dy0YePGSvlZkz8mcVvGq3aGtjnYJIXh7TuIN/I8j0WyCqp2GxgnELRsbFHMHZo2XyNysJBF+rf4ipHim0T5HFsJyMGgI953W/AcrKnLgmt/GF2LkRenlKXVFbHH/WSNb0LgD6L3T1sb/ckY7weCfRVoYibk68Tc715vlILTYggg33Hmo/RjXaX1FqhegVhjJsL77C9t1+NlCpseiq6uanmqjSU8OnsvEb53tNnfpCNGix9kan5QxYZyTqHmXLGONynqhO1tKYXMbFpE8vkLPsskFruZyDsxu3dfUbyoFHi4hqJnRVNRkb3hp3XzF7gRkEjXG2Qi99L7tFb2EVDK2limkY052hxBFwHbja/UFW5MNsHve4lVizVyzrWphBmAuIa0FzjoABcnwClGFbOZWF84BeQQG7wwEa+LiPRSCnpI4/6tjW332aBfxKyOGiovkmY9NER7TPYvETUUcT3G72gwycPbhJjcbdS2/mu4oN2YyWNbAT7s7JR0EsTPzY4+ZU5XbxW8qRZxMtfG8wIiKxAREQEREBERAREQEREFfdtBtS0xO4VTSf8At6lVnguKOkl7trRlsSSTrYcbeJGnVWb21PZ9QYxxsX1ELGeNnkn90O9VWmA0QicXXuSMu61hv/ILnczXl7706vA8prqOtpQCsjVzaKne173ukLmutladzfiui0rE6UOLths99eiDWuDZGEuYTuNxYtNtwOmvRQOPs8rSbERtHMyafAE/BWvlNwb7uCyrRTkWx11DNl4mPJbylFdndj2UbHve/PK5jml9rBjSDfKN/n0UbiOis8i65L9mqY39gi/J7hbw1UIzTMzNkZwxERFUGlqraWJ8Bp6ldjBMDfOWvkBZHv1Fi7oBy6qUUeCwRG7Ixfm72j5X3LdnmawFzjYC3x0AHMk2Fktl36rBXHr3MswVTbbbHzxzPngY6SJ7i/2RmcwuNyC0a2uTYq1YnkgEgtPEG1x000WRRw5ZxW3D3LhrlrqX56ioJXuyNje527KGOJ9LK9dk6B1NSQwye81vtDfYuJcR5Xst+RzvsgHnc/66LI0/n/krc+ecsRGleDiximZ3tkutLDsObCXlrnOzuzHMb237vVbd1Gdp8cLbwxGx3PcN4/C3rzKyxWZ9Qun0mvZrKHVVeGkEZaM3BuL2mBHiLKwVTnYbW2qKqAn3o4pAP+W4tcf8RquNdvBGscQ43I/2SIiK1SIiICIiAiIgIiICIiCnvpBV1vqcA35pZz0LcrGfzP8ARRTDp9x3bjY6WPEEcCu/2ktNRtDRQXu0fUmkcLGd73+Zb8guRtvTmgrqhjho55qYfxNmJcQPCTvG+ACxcrHNo3Hw6PCyxSdS7MD7rZaVW0mJTv1Mjm8g1xaB6fmtnA6uUTsDXuOZwDgXEgjje/S6x/RmI3tv+5rM6iFhgr2CsAK5mL48Kd7WZM5IzH2rWF7ctToVVETb1C68xEbl3AV9BWrR1bJW543Bw+R5EcD0WwCoodtOYVItkMT9BcuDmm/HQEgj0t1WOmoJC8S1Dw8t1YxvuMO7MNBc23X3XOpXSugKl5I+D6vQK0cTxKOnZnkPQAb3HoovVbRTS+4e6b01Pm4/5L2tJt08m8VTbvBfLcX5X19F6uq1ikd3jXNJc/M0g3JJddWOXJeviVt5NfFq3uIXycQLD9o6D4lV9M85eLnOPiST8ypLtrU5Y2M4Odcn9kaD4/Be+y/BDWVoleLxU9pTpoX/AKtvqC7+51V2CnkpzZIrvb3sJSvw/HW0shu4tdE4gae3A2ew5gFoF+ivVU7iLb7UxAb7sJ8qVx+SuJdPHGomHJyTuYkREVisREQEREBERAREQEREFL7ejutpKGR2jX/U9eF+9kjt/L6qY9quyJxGmzwtvUQZnxc3tPvxX62BHVo5lcPt4wZ76eGuhvnpnkOI3tZIW2f/AHZGs/eJU/2YxlldSw1Ue6RgcR91w0ew9WuDh5KOu4T31MPy/BJwO8aWIsR0I4Fd7ZCIGR8h4ANHi7f8B8VYnaZ2bfWHOraBoExu6WLQCXm9nAScxud0O+rNn6t0UxieC0klrmuBa5rm8CDqDvFliz0mKy38bJW142nrXKNbXxWfHLwILD0sbj5n0Xchnus0jA9pa4XaQQRzBWClvGdupkp5V0gtNVPiOeJ5bzAOh8RuKsGgqO8jZIdMzWu9RdRt+yjbjLK4DiCATboRZSWFoaA0aAAAdANArMtqzrSjFS1e2wl1jDlqVeJtikjicHEyGwsNBw19VTELZ9PGM4Q2pDczi0tvYjXfa9wfBa1HszDHq7NIfxHT0H53XYzLyXKXlOtPPCJnbFT0MUWscbWnmGi/729bBesTnrUqag6NY0vkeckbALue87gB8TwABJIGq89zOktRWNssodM9kEbc8kjsrBbdxLzyAFyTwsrU2fwSKhhEMIsLlzjYAucd7j6AdAAohhcLcEjbUVsc08sjT308MQkjp2ix7sgEODd13BpuW62AaBz9re0iKrh+pYSXzVFQe5B7p8eRrveILwPatfUaDVxOmvU4+GMUbntxuTmnNOq9NLs+/p+OVmIDWOPOGO4HNaGIg9Yo3nzVwKObBbLtwykbACHSE95M4bnPIAsPwgANHQX4lSNaaxqGW87kREUkRERAREQEREBERAREQYqumZKx0UjQ9j2ljmkXDmuFiCORCpCvxKp2VqX00IE9JP8ApoWyEjKfdcA8faHsg6G4yHQkq9Fwds9losTpzTy+yfeikAu6N43OHMcCOIPmvJh7E/yjPZrtrNikj++mp2FrSfqzIZBIBcASd691nAbjlB94Xtx6u2WwUNe4VDD3NS3dIBcPsLBsrftdDvHUaKMdl3ZzU4dVyVNU6OzWPhjDHF2fOWkvNwMos0ab9Ty1tZea3GrJeXjbdVBVtPLRy9xVM7t/DW7JB96J/wBodN44gLYiqBwPkrqxPDYamMxVEbJWHe17Q4X4HXceqgWL9lbSc1DUvh/s5QZ4/BriQ9vmXLDk4XzR08P/AKPrWSEcZJdezMBvIHiQFw9tsBxDDYWvnlhMb5BE0xOfnJLXO1DmCzbNO48lFsGw2esc5tPC+dzQHODQCQCbAm/VUxxbfK63Np+qyDKBqSB5rXfiUI3yx/8AUb/7UQk2XrmXvQ1GnKne74tBv5Lm10ckBDZoZIiRcCSJ8ZIHEB4Fwn2yP3cT0m9TtJTs3Pznkxpd8d3xXPftfGP1b7eLfkuPgGz1XiF/qkOdodkc/M1rWmwPtFx5EHS+9WXs32PRtGfEJDM4j+ric5jGnrILPf8Aw+BVleLtVfmaRqixA1bmxUjHTSu+wBYRj70r9zGjnx4XVq7J7KMox3shEtQ4WfJawaDYmOIfZZceLrAngB1sIweCkj7qmiZEzfZrQLnm473Hqblby14uPXH7jtjz8q+X1PSn+38z2pQ3P3DjI1wbfKZbtyBwG82zZQeRst3sf2EfS/0+rYWzOBbDG73o2O3vcOD3DS28C99SQLSsvqt8fe1Hl60IiKSIiIgIiICIiAiIgIiICIiAiIgIiICIiCq/pB3+qU2mn1jU9e6ksPn6LW+j3Sjuqua2pkiiv0Ywut/iLr9u8GbDQ7T2J4X9dQ6PT99aP0fJQaSpZxFRmPOzoowP5Sofss/RaiqL6QdEO7pKjiHyQ+T25/nH8Vbqrbt6y/7Ojvv+sxZepyS3/hzL2/SNO3O+j4/9BVt5Sxu9WW/8VbSq36P0FqOof96oy+TYoz83FWklei/+QiIpIiIiAiIgIiICIiAiIgIiICIiAiIgIiICIiDXxGtZTxSTynKyNj5HnfZrAXE28Avz1tZ2q1tY4tp3Gkh1Aaw2lcOb5d4PRtrdd6/QmJULKiKSCUXZIx8Txe12vBabHhoVQe0PY/XQOJpctXHrazmxyAfia8gHxafIKF9/CdNfKvqid8js8j3SO+89xe71cSVcn0eGnLWHW2anA5XAkJ87FvwUQwjsnxOcjPE2nbpd0sjSbcwxhJJ6GyvjZPZ2LDaZlLDcgXc5x9573e893ytwAA4LytZ3uUr2jWnZVT/SEefq9K3gZnk+IjcB/MVbCinaRsp/tSkMTCBMw95CToMwFi13RwuOhseCnbpXXtQ2zW3Vdh7O6ppG93cu7t8TXNzHeb2Dv4lY+y3bQx7hHiEQivYd9GSYweb4zdzR1Bd5KnsVw2akeY6mJ8LgbWe0tv8Asu3O8QSFlwPBKiuf3dJE6Z2l8o9lt+L3n2WjxKqibQvmtZh+t43hwDmkEEAgg3BB1BB4helytlMLdSUdPTPdmdFFHG4jcS0a26cB0XVVzOIiICIiAiIgIiICIiAiIgIiICIiAiIgIiICIiAiIgIiIPEkQcLOAcORAI9CvrIw0WaAANwAsB5L0iAiIgIiICIiAiIgIiICIiAiIgIiICIiAiIgIiICIiAiIgIiICIiAiIgIiICIiAiIgIiICIiD//Z;" vertex="1" parent="WlV3Ntwt_bg5x24Ok3lq-1">
          <mxGeometry x="-344" y="407" width="80" height="80" as="geometry" />
        </mxCell>
        <mxCell id="WlV3Ntwt_bg5x24Ok3lq-17" style="edgeStyle=orthogonalEdgeStyle;rounded=0;orthogonalLoop=1;jettySize=auto;html=1;exitX=0;exitY=0;exitDx=0;exitDy=27.5;exitPerimeter=0;entryX=1;entryY=0.25;entryDx=0;entryDy=0;" edge="1" parent="WlV3Ntwt_bg5x24Ok3lq-1" source="WlV3Ntwt_bg5x24Ok3lq-18" target="WlV3Ntwt_bg5x24Ok3lq-10">
          <mxGeometry relative="1" as="geometry" />
        </mxCell>
        <mxCell id="WlV3Ntwt_bg5x24Ok3lq-18" value="Ролевая модель:&lt;br&gt;Матрица доступа ABAC и предписаний" style="shape=cylinder3;whiteSpace=wrap;html=1;boundedLbl=1;backgroundOutline=1;size=15;" vertex="1" parent="WlV3Ntwt_bg5x24Ok3lq-1">
          <mxGeometry x="-510" y="70" width="120" height="110" as="geometry" />
        </mxCell>
        <mxCell id="WlV3Ntwt_bg5x24Ok3lq-19" style="edgeStyle=orthogonalEdgeStyle;rounded=0;orthogonalLoop=1;jettySize=auto;html=1;dashed=1;dashPattern=8 8;" edge="1" parent="WlV3Ntwt_bg5x24Ok3lq-1" source="WlV3Ntwt_bg5x24Ok3lq-20" target="WlV3Ntwt_bg5x24Ok3lq-13">
          <mxGeometry relative="1" as="geometry" />
        </mxCell>
        <mxCell id="WlV3Ntwt_bg5x24Ok3lq-20" value="Атрибуты пользователя (субьекта)" style="swimlane;fontStyle=0;childLayout=stackLayout;horizontal=1;startSize=30;horizontalStack=0;resizeParent=1;resizeParentMax=0;resizeLast=0;collapsible=1;marginBottom=0;whiteSpace=wrap;html=1;" vertex="1" parent="WlV3Ntwt_bg5x24Ok3lq-1">
          <mxGeometry x="-1380" y="620" width="170" height="120" as="geometry" />
        </mxCell>
        <mxCell id="WlV3Ntwt_bg5x24Ok3lq-21" value="Должность" style="text;strokeColor=none;fillColor=none;align=left;verticalAlign=middle;spacingLeft=4;spacingRight=4;overflow=hidden;points=[[0,0.5],[1,0.5]];portConstraint=eastwest;rotatable=0;whiteSpace=wrap;html=1;" vertex="1" parent="WlV3Ntwt_bg5x24Ok3lq-20">
          <mxGeometry y="30" width="170" height="30" as="geometry" />
        </mxCell>
        <mxCell id="WlV3Ntwt_bg5x24Ok3lq-22" value="Отдел" style="text;strokeColor=none;fillColor=none;align=left;verticalAlign=middle;spacingLeft=4;spacingRight=4;overflow=hidden;points=[[0,0.5],[1,0.5]];portConstraint=eastwest;rotatable=0;whiteSpace=wrap;html=1;" vertex="1" parent="WlV3Ntwt_bg5x24Ok3lq-20">
          <mxGeometry y="60" width="170" height="30" as="geometry" />
        </mxCell>
        <mxCell id="WlV3Ntwt_bg5x24Ok3lq-23" value="Роль в системе" style="text;strokeColor=none;fillColor=none;align=left;verticalAlign=middle;spacingLeft=4;spacingRight=4;overflow=hidden;points=[[0,0.5],[1,0.5]];portConstraint=eastwest;rotatable=0;whiteSpace=wrap;html=1;" vertex="1" parent="WlV3Ntwt_bg5x24Ok3lq-20">
          <mxGeometry y="90" width="170" height="30" as="geometry" />
        </mxCell>
        <mxCell id="WlV3Ntwt_bg5x24Ok3lq-24" value="Атрибуты ресурса (объекта)" style="swimlane;fontStyle=0;childLayout=stackLayout;horizontal=1;startSize=30;horizontalStack=0;resizeParent=1;resizeParentMax=0;resizeLast=0;collapsible=1;marginBottom=0;whiteSpace=wrap;html=1;" vertex="1" parent="WlV3Ntwt_bg5x24Ok3lq-1">
          <mxGeometry x="-550" y="595" width="170" height="120" as="geometry" />
        </mxCell>
        <mxCell id="WlV3Ntwt_bg5x24Ok3lq-25" value="Тип" style="text;strokeColor=none;fillColor=none;align=left;verticalAlign=middle;spacingLeft=4;spacingRight=4;overflow=hidden;points=[[0,0.5],[1,0.5]];portConstraint=eastwest;rotatable=0;whiteSpace=wrap;html=1;" vertex="1" parent="WlV3Ntwt_bg5x24Ok3lq-24">
          <mxGeometry y="30" width="170" height="30" as="geometry" />
        </mxCell>
        <mxCell id="WlV3Ntwt_bg5x24Ok3lq-26" value="Создатель" style="text;strokeColor=none;fillColor=none;align=left;verticalAlign=middle;spacingLeft=4;spacingRight=4;overflow=hidden;points=[[0,0.5],[1,0.5]];portConstraint=eastwest;rotatable=0;whiteSpace=wrap;html=1;" vertex="1" parent="WlV3Ntwt_bg5x24Ok3lq-24">
          <mxGeometry y="60" width="170" height="30" as="geometry" />
        </mxCell>
        <mxCell id="WlV3Ntwt_bg5x24Ok3lq-27" value="Добавлен в группу X" style="text;strokeColor=none;fillColor=none;align=left;verticalAlign=middle;spacingLeft=4;spacingRight=4;overflow=hidden;points=[[0,0.5],[1,0.5]];portConstraint=eastwest;rotatable=0;whiteSpace=wrap;html=1;" vertex="1" parent="WlV3Ntwt_bg5x24Ok3lq-24">
          <mxGeometry y="90" width="170" height="30" as="geometry" />
        </mxCell>
        <mxCell id="WlV3Ntwt_bg5x24Ok3lq-28" value="ATOM ID" style="text;html=1;align=center;verticalAlign=middle;whiteSpace=wrap;rounded=0;" vertex="1" parent="WlV3Ntwt_bg5x24Ok3lq-1">
          <mxGeometry x="-1170" y="190" width="60" height="30" as="geometry" />
        </mxCell>
        <mxCell id="WlV3Ntwt_bg5x24Ok3lq-29" style="edgeStyle=orthogonalEdgeStyle;rounded=0;orthogonalLoop=1;jettySize=auto;html=1;exitX=0.5;exitY=0;exitDx=0;exitDy=0;exitPerimeter=0;entryX=0.5;entryY=1;entryDx=0;entryDy=0;" edge="1" parent="WlV3Ntwt_bg5x24Ok3lq-1" source="WlV3Ntwt_bg5x24Ok3lq-31" target="WlV3Ntwt_bg5x24Ok3lq-7">
          <mxGeometry relative="1" as="geometry" />
        </mxCell>
        <mxCell id="WlV3Ntwt_bg5x24Ok3lq-30" value="Ресурс.owner = &quot;Владелец Печеньки&quot;" style="edgeLabel;html=1;align=center;verticalAlign=middle;resizable=0;points=[];" vertex="1" connectable="0" parent="WlV3Ntwt_bg5x24Ok3lq-29">
          <mxGeometry x="0.2212" y="-4" relative="1" as="geometry">
            <mxPoint as="offset" />
          </mxGeometry>
        </mxCell>
        <mxCell id="WlV3Ntwt_bg5x24Ok3lq-31" value="БД&lt;div&gt;информация c динамическими&amp;nbsp; атрибутами объектов&amp;nbsp;&lt;/div&gt;" style="shape=cylinder3;whiteSpace=wrap;html=1;boundedLbl=1;backgroundOutline=1;size=15;" vertex="1" parent="WlV3Ntwt_bg5x24Ok3lq-1">
          <mxGeometry x="-751.25" y="600" width="122.5" height="110" as="geometry" />
        </mxCell>
        <mxCell id="WlV3Ntwt_bg5x24Ok3lq-32" value="Запрос решения APA" style="rounded=0;whiteSpace=wrap;html=1;" vertex="1" parent="WlV3Ntwt_bg5x24Ok3lq-1">
          <mxGeometry x="-1120" y="410" width="140" height="80" as="geometry" />
        </mxCell>
        <mxCell id="WlV3Ntwt_bg5x24Ok3lq-33" value="If Решение == alow, &lt;br&gt;restrictions: &quot;Object.owner = X&quot;" style="edgeStyle=orthogonalEdgeStyle;rounded=0;orthogonalLoop=1;jettySize=auto;html=1;entryX=0;entryY=0.5;entryDx=0;entryDy=0;exitX=1;exitY=0.5;exitDx=0;exitDy=0;" edge="1" parent="WlV3Ntwt_bg5x24Ok3lq-1" source="WlV3Ntwt_bg5x24Ok3lq-32" target="WlV3Ntwt_bg5x24Ok3lq-7">
          <mxGeometry relative="1" as="geometry">
            <mxPoint x="-1560" y="447" as="sourcePoint" />
            <mxPoint x="-1050" y="447" as="targetPoint" />
          </mxGeometry>
        </mxCell>
        <mxCell id="WlV3Ntwt_bg5x24Ok3lq-34" value="ABAC c предписаниями" style="rounded=0;whiteSpace=wrap;html=1;fillColor=#e1d5e7;strokeColor=#9673a6;" vertex="1" parent="WlV3Ntwt_bg5x24Ok3lq-1">
          <mxGeometry x="-1390" y="30" width="120" height="60" as="geometry" />
        </mxCell>
        <mxCell id="WlV3Ntwt_bg5x24Ok3lq-35" style="edgeStyle=orthogonalEdgeStyle;rounded=0;orthogonalLoop=1;jettySize=auto;html=1;exitX=1;exitY=0.5;exitDx=0;exitDy=0;entryX=0.5;entryY=1;entryDx=0;entryDy=0;dashed=1;dashPattern=8 8;" edge="1" parent="WlV3Ntwt_bg5x24Ok3lq-1" source="WlV3Ntwt_bg5x24Ok3lq-25" target="WlV3Ntwt_bg5x24Ok3lq-16">
          <mxGeometry relative="1" as="geometry" />
        </mxCell>
        <mxCell id="WlV3Ntwt_bg5x24Ok3lq-36" value="ИС" style="text;html=1;align=center;verticalAlign=middle;whiteSpace=wrap;rounded=0;" vertex="1" parent="WlV3Ntwt_bg5x24Ok3lq-1">
          <mxGeometry x="-1170" y="250" width="60" height="30" as="geometry" />
        </mxCell>
        <mxCell id="WlV3Ntwt_bg5x24Ok3lq-37" style="edgeStyle=orthogonalEdgeStyle;rounded=0;orthogonalLoop=1;jettySize=auto;html=1;entryX=0.5;entryY=0;entryDx=0;entryDy=0;" edge="1" parent="WlV3Ntwt_bg5x24Ok3lq-1" source="WlV3Ntwt_bg5x24Ok3lq-38" target="WlV3Ntwt_bg5x24Ok3lq-10">
          <mxGeometry relative="1" as="geometry">
            <Array as="points">
              <mxPoint x="-304" y="50" />
              <mxPoint x="-737" y="50" />
            </Array>
          </mxGeometry>
        </mxCell>
        <mxCell id="WlV3Ntwt_bg5x24Ok3lq-38" value="Политика" style="shape=cylinder3;whiteSpace=wrap;html=1;boundedLbl=1;backgroundOutline=1;size=15;" vertex="1" parent="WlV3Ntwt_bg5x24Ok3lq-1">
          <mxGeometry x="-369" y="70" width="130" height="110" as="geometry" />
        </mxCell>
        <mxCell id="WlV3Ntwt_bg5x24Ok3lq-39" value="&lt;p style=&quot;margin-bottom:0cm;margin-bottom:.0001pt;line-height:&amp;lt;br/&amp;gt;normal&quot; class=&quot;MsoNormal&quot;&gt;&lt;span style=&quot;font-size:9.0pt;mso-bidi-font-size:11.0pt&quot;&gt;&lt;b&gt;Бизнес правило:&lt;/b&gt; Пользователь с [атрибут-роль]&lt;br&gt;[атрибут X] может [получить доступ] [прочитать] [изменить] [удалить] свой блог если у&lt;br&gt;пользователя имеется&amp;nbsp;&lt;/span&gt;[атрибут-роль] и&amp;nbsp;&lt;span style=&quot;font-size:9.0pt;mso-bidi-font-size:11.0pt&quot;&gt;у объекта есть [атрибут X] и&amp;nbsp;&lt;/span&gt;&lt;span style=&quot;background-color: transparent; color: light-dark(rgb(0, 0, 0), rgb(255, 255, 255));&quot;&gt;[атрибут Y]&lt;/span&gt;&lt;/p&gt;" style="rounded=0;whiteSpace=wrap;html=1;fillColor=#d5e8d4;strokeColor=#82b366;" vertex="1" parent="WlV3Ntwt_bg5x24Ok3lq-1">
          <mxGeometry x="-690" y="730" width="541.25" height="60" as="geometry" />
        </mxCell>
        <mxCell id="WlV3Ntwt_bg5x24Ok3lq-40" style="edgeStyle=orthogonalEdgeStyle;rounded=0;orthogonalLoop=1;jettySize=auto;html=1;entryX=1;entryY=0.5;entryDx=0;entryDy=0;entryPerimeter=0;dashed=1;dashPattern=8 8;exitX=1;exitY=0.5;exitDx=0;exitDy=0;" edge="1" parent="WlV3Ntwt_bg5x24Ok3lq-1" source="WlV3Ntwt_bg5x24Ok3lq-39" target="WlV3Ntwt_bg5x24Ok3lq-38">
          <mxGeometry relative="1" as="geometry">
            <Array as="points">
              <mxPoint x="-130" y="125" />
            </Array>
          </mxGeometry>
        </mxCell>
      </root>
    </mxGraphModel>
  </diagram>
</mxfile>
